ISO-10303-21;
HEADER;
/* Generated by software containing ST-Developer
 * from STEP Tools, Inc. (www.steptools.com) 
 */

FILE_DESCRIPTION(
/* description */ (''),
/* implementation_level */ '2;1');

FILE_NAME(
/* name */ 'Sensor and battery bay.step',
/* time_stamp */ '2026-07-31T17:53:37+01:00',
/* author */ (''),
/* organization */ (''),
/* preprocessor_version */ 'ST-DEVELOPER v20.1',
/* originating_system */ 'Autodesk Translation Framework v15.8.0.0',
/* authorisation */ '');

FILE_SCHEMA (('AUTOMOTIVE_DESIGN { 1 0 10303 214 3 1 1 }'));
ENDSEC;

DATA;
#10=MECHANICAL_DESIGN_GEOMETRIC_PRESENTATION_REPRESENTATION('',(#13),#1274);
#11=SHAPE_REPRESENTATION_RELATIONSHIP('SRR','None',#1281,#12);
#12=ADVANCED_BREP_SHAPE_REPRESENTATION('',(#14),#1273);
#13=STYLED_ITEM('',(#1291),#14);
#14=MANIFOLD_SOLID_BREP('Body1',#724);
#15=B_SPLINE_CURVE_WITH_KNOTS('',3,(#1072,#1073,#1074,#1075,#1076,#1077,
#1078,#1079),.UNSPECIFIED.,.F.,.F.,(4,2,2,4),(1.55127576455289,1.72717071122301,
1.90306565789313,2.25485555123337),.UNSPECIFIED.);
#16=B_SPLINE_CURVE_WITH_KNOTS('',3,(#1083,#1084,#1085,#1086,#1087,#1088,
#1089,#1090),.UNSPECIFIED.,.F.,.F.,(4,2,2,4),(0.,0.351789893340242,0.527684840010363,
0.703579786680483),.UNSPECIFIED.);
#17=B_SPLINE_CURVE_WITH_KNOTS('',3,(#1112,#1113,#1114,#1115,#1116,#1117,
#1118,#1119),.UNSPECIFIED.,.F.,.F.,(4,2,2,4),(1.55127576455289,1.72717071122301,
1.90306565789313,2.2274874263443),.UNSPECIFIED.);
#18=B_SPLINE_CURVE_WITH_KNOTS('',3,(#1122,#1123,#1124,#1125),
 .UNSPECIFIED.,.F.,.F.,(4,4),(1.08128338893113,1.16441297561205),
 .UNSPECIFIED.);
#19=B_SPLINE_CURVE_WITH_KNOTS('',3,(#1127,#1128,#1129,#1130,#1131,#1132,
#1133,#1134),.UNSPECIFIED.,.F.,.F.,(4,2,2,4),(0.,0.351789893340242,0.527684840010363,
0.703579786680483),.UNSPECIFIED.);
#20=B_SPLINE_CURVE_WITH_KNOTS('',3,(#1139,#1140,#1141,#1142),
 .UNSPECIFIED.,.F.,.F.,(4,4),(0.711760021371732,0.789760737643733),
 .UNSPECIFIED.);
#21=B_SPLINE_CURVE_WITH_KNOTS('',3,(#1146,#1147,#1148,#1149),
 .UNSPECIFIED.,.F.,.F.,(4,4),(0.789760737643731,0.86776145391573),
 .UNSPECIFIED.);
#22=FACE_BOUND('',#92,.T.);
#23=FACE_BOUND('',#94,.T.);
#24=FACE_BOUND('',#97,.T.);
#25=FACE_BOUND('',#101,.T.);
#26=FACE_BOUND('',#112,.T.);
#27=FACE_BOUND('',#116,.T.);
#28=FACE_BOUND('',#117,.T.);
#29=FACE_BOUND('',#121,.T.);
#30=FACE_BOUND('',#122,.T.);
#31=CYLINDRICAL_SURFACE('',#746,9.52827761780352);
#32=CYLINDRICAL_SURFACE('',#749,10.7497722040529);
#33=CYLINDRICAL_SURFACE('',#755,2.5);
#34=CYLINDRICAL_SURFACE('',#761,2.5);
#35=CYLINDRICAL_SURFACE('',#762,8.5);
#36=CYLINDRICAL_SURFACE('',#772,8.5);
#37=CYLINDRICAL_SURFACE('',#776,5.5);
#38=CYLINDRICAL_SURFACE('',#778,16.8739390104761);
#39=CYLINDRICAL_SURFACE('',#780,2.75);
#40=CYLINDRICAL_SURFACE('',#783,29.5);
#41=CYLINDRICAL_SURFACE('',#793,1.25);
#42=CYLINDRICAL_SURFACE('',#795,1.25);
#43=CYLINDRICAL_SURFACE('',#802,2.54);
#44=CYLINDRICAL_SURFACE('',#804,2.54);
#45=CYLINDRICAL_SURFACE('',#806,2.54);
#46=CYLINDRICAL_SURFACE('',#808,2.54);
#47=CYLINDRICAL_SURFACE('',#811,4.855771934774);
#48=CYLINDRICAL_SURFACE('',#812,4.855771934774);
#49=FACE_OUTER_BOUND('',#87,.T.);
#50=FACE_OUTER_BOUND('',#88,.T.);
#51=FACE_OUTER_BOUND('',#89,.T.);
#52=FACE_OUTER_BOUND('',#90,.T.);
#53=FACE_OUTER_BOUND('',#91,.T.);
#54=FACE_OUTER_BOUND('',#93,.T.);
#55=FACE_OUTER_BOUND('',#95,.T.);
#56=FACE_OUTER_BOUND('',#96,.T.);
#57=FACE_OUTER_BOUND('',#98,.T.);
#58=FACE_OUTER_BOUND('',#99,.T.);
#59=FACE_OUTER_BOUND('',#100,.T.);
#60=FACE_OUTER_BOUND('',#102,.T.);
#61=FACE_OUTER_BOUND('',#103,.T.);
#62=FACE_OUTER_BOUND('',#104,.T.);
#63=FACE_OUTER_BOUND('',#105,.T.);
#64=FACE_OUTER_BOUND('',#106,.T.);
#65=FACE_OUTER_BOUND('',#107,.T.);
#66=FACE_OUTER_BOUND('',#108,.T.);
#67=FACE_OUTER_BOUND('',#109,.T.);
#68=FACE_OUTER_BOUND('',#110,.T.);
#69=FACE_OUTER_BOUND('',#111,.T.);
#70=FACE_OUTER_BOUND('',#113,.T.);
#71=FACE_OUTER_BOUND('',#114,.T.);
#72=FACE_OUTER_BOUND('',#115,.T.);
#73=FACE_OUTER_BOUND('',#118,.T.);
#74=FACE_OUTER_BOUND('',#119,.T.);
#75=FACE_OUTER_BOUND('',#120,.T.);
#76=FACE_OUTER_BOUND('',#123,.T.);
#77=FACE_OUTER_BOUND('',#124,.T.);
#78=FACE_OUTER_BOUND('',#125,.T.);
#79=FACE_OUTER_BOUND('',#126,.T.);
#80=FACE_OUTER_BOUND('',#127,.T.);
#81=FACE_OUTER_BOUND('',#128,.T.);
#82=FACE_OUTER_BOUND('',#129,.T.);
#83=FACE_OUTER_BOUND('',#130,.T.);
#84=FACE_OUTER_BOUND('',#131,.T.);
#85=FACE_OUTER_BOUND('',#132,.T.);
#86=FACE_OUTER_BOUND('',#133,.T.);
#87=EDGE_LOOP('',(#460,#461,#462,#463));
#88=EDGE_LOOP('',(#464,#465,#466,#467));
#89=EDGE_LOOP('',(#468,#469,#470,#471));
#90=EDGE_LOOP('',(#472,#473,#474,#475));
#91=EDGE_LOOP('',(#476,#477,#478,#479));
#92=EDGE_LOOP('',(#480,#481,#482,#483));
#93=EDGE_LOOP('',(#484,#485,#486,#487));
#94=EDGE_LOOP('',(#488,#489,#490,#491));
#95=EDGE_LOOP('',(#492,#493,#494,#495));
#96=EDGE_LOOP('',(#496,#497));
#97=EDGE_LOOP('',(#498));
#98=EDGE_LOOP('',(#499));
#99=EDGE_LOOP('',(#500,#501,#502,#503));
#100=EDGE_LOOP('',(#504));
#101=EDGE_LOOP('',(#505,#506,#507,#508,#509,#510,#511,#512,#513,#514));
#102=EDGE_LOOP('',(#515,#516,#517,#518,#519,#520));
#103=EDGE_LOOP('',(#521,#522,#523,#524,#525,#526,#527,#528,#529,#530));
#104=EDGE_LOOP('',(#531,#532,#533,#534,#535,#536,#537,#538,#539,#540,#541,
#542,#543,#544));
#105=EDGE_LOOP('',(#545,#546,#547,#548,#549,#550,#551,#552,#553));
#106=EDGE_LOOP('',(#554,#555,#556,#557));
#107=EDGE_LOOP('',(#558,#559,#560,#561));
#108=EDGE_LOOP('',(#562,#563,#564,#565,#566));
#109=EDGE_LOOP('',(#567,#568,#569,#570,#571,#572));
#110=EDGE_LOOP('',(#573,#574,#575,#576));
#111=EDGE_LOOP('',(#577));
#112=EDGE_LOOP('',(#578,#579,#580,#581));
#113=EDGE_LOOP('',(#582,#583,#584,#585,#586,#587));
#114=EDGE_LOOP('',(#588,#589,#590,#591,#592,#593));
#115=EDGE_LOOP('',(#594,#595,#596,#597,#598,#599));
#116=EDGE_LOOP('',(#600));
#117=EDGE_LOOP('',(#601));
#118=EDGE_LOOP('',(#602,#603,#604,#605));
#119=EDGE_LOOP('',(#606,#607,#608,#609));
#120=EDGE_LOOP('',(#610,#611,#612,#613,#614,#615,#616,#617));
#121=EDGE_LOOP('',(#618));
#122=EDGE_LOOP('',(#619));
#123=EDGE_LOOP('',(#620,#621,#622,#623,#624));
#124=EDGE_LOOP('',(#625,#626,#627,#628));
#125=EDGE_LOOP('',(#629,#630,#631,#632));
#126=EDGE_LOOP('',(#633,#634,#635,#636));
#127=EDGE_LOOP('',(#637,#638,#639,#640));
#128=EDGE_LOOP('',(#641,#642,#643,#644));
#129=EDGE_LOOP('',(#645,#646,#647,#648,#649));
#130=EDGE_LOOP('',(#650,#651,#652,#653));
#131=EDGE_LOOP('',(#654,#655,#656,#657));
#132=EDGE_LOOP('',(#658,#659,#660,#661));
#133=EDGE_LOOP('',(#662,#663,#664,#665));
#134=LINE('',#1030,#193);
#135=LINE('',#1033,#194);
#136=LINE('',#1036,#195);
#137=LINE('',#1038,#196);
#138=LINE('',#1039,#197);
#139=LINE('',#1045,#198);
#140=LINE('',#1047,#199);
#141=LINE('',#1048,#200);
#142=LINE('',#1053,#201);
#143=LINE('',#1060,#202);
#144=LINE('',#1063,#203);
#145=LINE('',#1065,#204);
#146=LINE('',#1066,#205);
#147=LINE('',#1081,#206);
#148=LINE('',#1091,#207);
#149=LINE('',#1095,#208);
#150=LINE('',#1097,#209);
#151=LINE('',#1099,#210);
#152=LINE('',#1107,#211);
#153=LINE('',#1108,#212);
#154=LINE('',#1121,#213);
#155=LINE('',#1135,#214);
#156=LINE('',#1144,#215);
#157=LINE('',#1151,#216);
#158=LINE('',#1155,#217);
#159=LINE('',#1158,#218);
#160=LINE('',#1162,#219);
#161=LINE('',#1165,#220);
#162=LINE('',#1169,#221);
#163=LINE('',#1173,#222);
#164=LINE('',#1177,#223);
#165=LINE('',#1185,#224);
#166=LINE('',#1188,#225);
#167=LINE('',#1191,#226);
#168=LINE('',#1194,#227);
#169=LINE('',#1198,#228);
#170=LINE('',#1201,#229);
#171=LINE('',#1204,#230);
#172=LINE('',#1209,#231);
#173=LINE('',#1210,#232);
#174=LINE('',#1213,#233);
#175=LINE('',#1214,#234);
#176=LINE('',#1219,#235);
#177=LINE('',#1228,#236);
#178=LINE('',#1232,#237);
#179=LINE('',#1238,#238);
#180=LINE('',#1242,#239);
#181=LINE('',#1246,#240);
#182=LINE('',#1249,#241);
#183=LINE('',#1251,#242);
#184=LINE('',#1252,#243);
#185=LINE('',#1254,#244);
#186=LINE('',#1256,#245);
#187=LINE('',#1258,#246);
#188=LINE('',#1260,#247);
#189=LINE('',#1262,#248);
#190=LINE('',#1264,#249);
#191=LINE('',#1267,#250);
#192=LINE('',#1268,#251);
#193=VECTOR('',#819,10.);
#194=VECTOR('',#822,10.);
#195=VECTOR('',#825,10.);
#196=VECTOR('',#826,10.);
#197=VECTOR('',#827,10.);
#198=VECTOR('',#834,10.);
#199=VECTOR('',#837,10.);
#200=VECTOR('',#838,10.);
#201=VECTOR('',#843,9.52827761780352);
#202=VECTOR('',#850,10.);
#203=VECTOR('',#853,10.);
#204=VECTOR('',#856,10.);
#205=VECTOR('',#857,10.);
#206=VECTOR('',#864,10.);
#207=VECTOR('',#865,10.);
#208=VECTOR('',#870,10.);
#209=VECTOR('',#871,10.);
#210=VECTOR('',#872,10.);
#211=VECTOR('',#879,10.);
#212=VECTOR('',#880,10.);
#213=VECTOR('',#883,10.);
#214=VECTOR('',#884,10.);
#215=VECTOR('',#887,10.);
#216=VECTOR('',#888,10.);
#217=VECTOR('',#893,10.);
#218=VECTOR('',#896,10.);
#219=VECTOR('',#899,10.);
#220=VECTOR('',#902,10.);
#221=VECTOR('',#905,10.);
#222=VECTOR('',#908,10.);
#223=VECTOR('',#911,10.);
#224=VECTOR('',#922,10.);
#225=VECTOR('',#925,10.);
#226=VECTOR('',#928,10.);
#227=VECTOR('',#931,10.);
#228=VECTOR('',#936,10.);
#229=VECTOR('',#941,10.);
#230=VECTOR('',#944,29.5);
#231=VECTOR('',#951,10.);
#232=VECTOR('',#952,10.);
#233=VECTOR('',#955,10.);
#234=VECTOR('',#956,10.);
#235=VECTOR('',#961,10.);
#236=VECTOR('',#972,1.25);
#237=VECTOR('',#977,1.25);
#238=VECTOR('',#982,10.);
#239=VECTOR('',#985,10.);
#240=VECTOR('',#988,10.);
#241=VECTOR('',#991,10.);
#242=VECTOR('',#994,10.);
#243=VECTOR('',#995,10.);
#244=VECTOR('',#998,10.);
#245=VECTOR('',#1001,10.);
#246=VECTOR('',#1004,10.);
#247=VECTOR('',#1007,10.);
#248=VECTOR('',#1010,10.);
#249=VECTOR('',#1013,10.);
#250=VECTOR('',#1018,10.);
#251=VECTOR('',#1019,10.);
#252=CIRCLE('',#739,9.52827761780352);
#253=CIRCLE('',#740,10.7497722040529);
#254=CIRCLE('',#743,9.52827761780352);
#255=CIRCLE('',#744,10.7497722040529);
#256=CIRCLE('',#747,9.52827761780352);
#257=CIRCLE('',#748,9.52827761780352);
#258=CIRCLE('',#750,10.7497722040529);
#259=CIRCLE('',#751,10.7497722040529);
#260=CIRCLE('',#757,29.5);
#261=CIRCLE('',#758,2.75);
#262=CIRCLE('',#759,16.8739390104761);
#263=CIRCLE('',#760,5.5);
#264=CIRCLE('',#763,8.5);
#265=CIRCLE('',#764,8.5);
#266=CIRCLE('',#766,4.855771934774);
#267=CIRCLE('',#767,4.855771934774);
#268=CIRCLE('',#768,2.54);
#269=CIRCLE('',#769,2.54);
#270=CIRCLE('',#770,2.54);
#271=CIRCLE('',#771,2.54);
#272=CIRCLE('',#773,8.5);
#273=CIRCLE('',#774,8.5);
#274=CIRCLE('',#775,8.5);
#275=CIRCLE('',#777,5.5);
#276=CIRCLE('',#779,16.8739390104761);
#277=CIRCLE('',#781,2.75);
#278=CIRCLE('',#784,29.5);
#279=CIRCLE('',#789,4.855771934774);
#280=CIRCLE('',#790,4.855771934774);
#281=CIRCLE('',#791,1.25);
#282=CIRCLE('',#792,1.25);
#283=CIRCLE('',#794,1.25);
#284=CIRCLE('',#796,1.25);
#285=CIRCLE('',#798,2.54);
#286=CIRCLE('',#799,2.54);
#287=CIRCLE('',#800,2.54);
#288=CIRCLE('',#801,2.54);
#289=VERTEX_POINT('',#1026);
#290=VERTEX_POINT('',#1027);
#291=VERTEX_POINT('',#1029);
#292=VERTEX_POINT('',#1031);
#293=VERTEX_POINT('',#1035);
#294=VERTEX_POINT('',#1037);
#295=VERTEX_POINT('',#1041);
#296=VERTEX_POINT('',#1043);
#297=VERTEX_POINT('',#1050);
#298=VERTEX_POINT('',#1052);
#299=VERTEX_POINT('',#1056);
#300=VERTEX_POINT('',#1057);
#301=VERTEX_POINT('',#1059);
#302=VERTEX_POINT('',#1061);
#303=VERTEX_POINT('',#1070);
#304=VERTEX_POINT('',#1071);
#305=VERTEX_POINT('',#1080);
#306=VERTEX_POINT('',#1082);
#307=VERTEX_POINT('',#1093);
#308=VERTEX_POINT('',#1096);
#309=VERTEX_POINT('',#1098);
#310=VERTEX_POINT('',#1100);
#311=VERTEX_POINT('',#1102);
#312=VERTEX_POINT('',#1104);
#313=VERTEX_POINT('',#1106);
#314=VERTEX_POINT('',#1110);
#315=VERTEX_POINT('',#1111);
#316=VERTEX_POINT('',#1120);
#317=VERTEX_POINT('',#1126);
#318=VERTEX_POINT('',#1137);
#319=VERTEX_POINT('',#1138);
#320=VERTEX_POINT('',#1143);
#321=VERTEX_POINT('',#1145);
#322=VERTEX_POINT('',#1150);
#323=VERTEX_POINT('',#1153);
#324=VERTEX_POINT('',#1157);
#325=VERTEX_POINT('',#1159);
#326=VERTEX_POINT('',#1161);
#327=VERTEX_POINT('',#1163);
#328=VERTEX_POINT('',#1166);
#329=VERTEX_POINT('',#1168);
#330=VERTEX_POINT('',#1170);
#331=VERTEX_POINT('',#1172);
#332=VERTEX_POINT('',#1174);
#333=VERTEX_POINT('',#1176);
#334=VERTEX_POINT('',#1180);
#335=VERTEX_POINT('',#1183);
#336=VERTEX_POINT('',#1187);
#337=VERTEX_POINT('',#1189);
#338=VERTEX_POINT('',#1193);
#339=VERTEX_POINT('',#1197);
#340=VERTEX_POINT('',#1203);
#341=VERTEX_POINT('',#1208);
#342=VERTEX_POINT('',#1212);
#343=VERTEX_POINT('',#1216);
#344=VERTEX_POINT('',#1218);
#345=VERTEX_POINT('',#1221);
#346=VERTEX_POINT('',#1223);
#347=VERTEX_POINT('',#1226);
#348=VERTEX_POINT('',#1230);
#349=VERTEX_POINT('',#1234);
#350=VERTEX_POINT('',#1235);
#351=VERTEX_POINT('',#1237);
#352=VERTEX_POINT('',#1239);
#353=VERTEX_POINT('',#1241);
#354=VERTEX_POINT('',#1243);
#355=VERTEX_POINT('',#1245);
#356=VERTEX_POINT('',#1247);
#357=EDGE_CURVE('',#289,#290,#252,.T.);
#358=EDGE_CURVE('',#291,#289,#134,.T.);
#359=EDGE_CURVE('',#292,#291,#253,.T.);
#360=EDGE_CURVE('',#292,#290,#135,.T.);
#361=EDGE_CURVE('',#290,#293,#136,.T.);
#362=EDGE_CURVE('',#294,#292,#137,.T.);
#363=EDGE_CURVE('',#294,#293,#138,.T.);
#364=EDGE_CURVE('',#293,#295,#254,.T.);
#365=EDGE_CURVE('',#296,#294,#255,.T.);
#366=EDGE_CURVE('',#296,#295,#139,.T.);
#367=EDGE_CURVE('',#295,#289,#140,.T.);
#368=EDGE_CURVE('',#291,#296,#141,.T.);
#369=EDGE_CURVE('',#297,#297,#256,.T.);
#370=EDGE_CURVE('',#297,#298,#142,.T.);
#371=EDGE_CURVE('',#298,#298,#257,.T.);
#372=EDGE_CURVE('',#299,#300,#258,.T.);
#373=EDGE_CURVE('',#299,#301,#143,.T.);
#374=EDGE_CURVE('',#302,#301,#259,.T.);
#375=EDGE_CURVE('',#300,#302,#144,.T.);
#376=EDGE_CURVE('',#299,#300,#145,.T.);
#377=EDGE_CURVE('',#301,#302,#146,.T.);
#378=EDGE_CURVE('',#303,#304,#15,.T.);
#379=EDGE_CURVE('',#304,#305,#147,.T.);
#380=EDGE_CURVE('',#305,#306,#16,.T.);
#381=EDGE_CURVE('',#306,#303,#148,.T.);
#382=EDGE_CURVE('',#307,#307,#260,.T.);
#383=EDGE_CURVE('',#300,#305,#149,.T.);
#384=EDGE_CURVE('',#308,#304,#150,.T.);
#385=EDGE_CURVE('',#309,#308,#151,.T.);
#386=EDGE_CURVE('',#310,#309,#261,.T.);
#387=EDGE_CURVE('',#310,#311,#262,.T.);
#388=EDGE_CURVE('',#312,#311,#263,.T.);
#389=EDGE_CURVE('',#312,#313,#152,.T.);
#390=EDGE_CURVE('',#313,#299,#153,.T.);
#391=EDGE_CURVE('',#314,#315,#17,.T.);
#392=EDGE_CURVE('',#315,#316,#154,.T.);
#393=EDGE_CURVE('',#309,#316,#18,.F.);
#394=EDGE_CURVE('',#308,#317,#19,.T.);
#395=EDGE_CURVE('',#317,#314,#155,.T.);
#396=EDGE_CURVE('',#318,#319,#20,.T.);
#397=EDGE_CURVE('',#320,#319,#156,.F.);
#398=EDGE_CURVE('',#321,#320,#21,.F.);
#399=EDGE_CURVE('',#321,#322,#157,.T.);
#400=EDGE_CURVE('',#322,#317,#264,.T.);
#401=EDGE_CURVE('',#303,#323,#265,.T.);
#402=EDGE_CURVE('',#323,#318,#158,.T.);
#403=EDGE_CURVE('',#324,#323,#159,.T.);
#404=EDGE_CURVE('',#325,#324,#266,.T.);
#405=EDGE_CURVE('',#326,#325,#160,.T.);
#406=EDGE_CURVE('',#327,#326,#267,.T.);
#407=EDGE_CURVE('',#322,#327,#161,.T.);
#408=EDGE_CURVE('',#328,#321,#268,.T.);
#409=EDGE_CURVE('',#329,#328,#162,.T.);
#410=EDGE_CURVE('',#330,#329,#269,.T.);
#411=EDGE_CURVE('',#331,#330,#163,.T.);
#412=EDGE_CURVE('',#332,#331,#270,.T.);
#413=EDGE_CURVE('',#333,#332,#164,.T.);
#414=EDGE_CURVE('',#318,#333,#271,.T.);
#415=EDGE_CURVE('',#334,#306,#272,.T.);
#416=EDGE_CURVE('',#313,#315,#273,.T.);
#417=EDGE_CURVE('',#314,#335,#274,.T.);
#418=EDGE_CURVE('',#335,#334,#165,.T.);
#419=EDGE_CURVE('',#311,#336,#166,.T.);
#420=EDGE_CURVE('',#336,#337,#275,.T.);
#421=EDGE_CURVE('',#337,#312,#167,.T.);
#422=EDGE_CURVE('',#338,#310,#168,.T.);
#423=EDGE_CURVE('',#336,#338,#276,.T.);
#424=EDGE_CURVE('',#316,#339,#169,.T.);
#425=EDGE_CURVE('',#339,#338,#277,.T.);
#426=EDGE_CURVE('',#339,#337,#170,.T.);
#427=EDGE_CURVE('',#307,#340,#171,.T.);
#428=EDGE_CURVE('',#340,#340,#278,.T.);
#429=EDGE_CURVE('',#327,#341,#172,.T.);
#430=EDGE_CURVE('',#335,#341,#173,.T.);
#431=EDGE_CURVE('',#342,#334,#174,.T.);
#432=EDGE_CURVE('',#324,#342,#175,.T.);
#433=EDGE_CURVE('',#341,#343,#279,.T.);
#434=EDGE_CURVE('',#343,#344,#176,.T.);
#435=EDGE_CURVE('',#344,#342,#280,.T.);
#436=EDGE_CURVE('',#345,#345,#281,.T.);
#437=EDGE_CURVE('',#346,#346,#282,.T.);
#438=EDGE_CURVE('',#347,#347,#283,.T.);
#439=EDGE_CURVE('',#347,#345,#177,.T.);
#440=EDGE_CURVE('',#348,#348,#284,.T.);
#441=EDGE_CURVE('',#348,#346,#178,.T.);
#442=EDGE_CURVE('',#349,#350,#285,.T.);
#443=EDGE_CURVE('',#350,#351,#179,.T.);
#444=EDGE_CURVE('',#351,#352,#286,.T.);
#445=EDGE_CURVE('',#352,#353,#180,.T.);
#446=EDGE_CURVE('',#353,#354,#287,.T.);
#447=EDGE_CURVE('',#354,#355,#181,.T.);
#448=EDGE_CURVE('',#355,#356,#288,.T.);
#449=EDGE_CURVE('',#356,#349,#182,.T.);
#450=EDGE_CURVE('',#320,#350,#183,.F.);
#451=EDGE_CURVE('',#328,#349,#184,.T.);
#452=EDGE_CURVE('',#329,#356,#185,.T.);
#453=EDGE_CURVE('',#330,#355,#186,.T.);
#454=EDGE_CURVE('',#331,#354,#187,.T.);
#455=EDGE_CURVE('',#332,#353,#188,.T.);
#456=EDGE_CURVE('',#333,#352,#189,.T.);
#457=EDGE_CURVE('',#319,#351,#190,.T.);
#458=EDGE_CURVE('',#325,#344,#191,.T.);
#459=EDGE_CURVE('',#326,#343,#192,.T.);
#460=ORIENTED_EDGE('',*,*,#357,.F.);
#461=ORIENTED_EDGE('',*,*,#358,.F.);
#462=ORIENTED_EDGE('',*,*,#359,.F.);
#463=ORIENTED_EDGE('',*,*,#360,.T.);
#464=ORIENTED_EDGE('',*,*,#361,.F.);
#465=ORIENTED_EDGE('',*,*,#360,.F.);
#466=ORIENTED_EDGE('',*,*,#362,.F.);
#467=ORIENTED_EDGE('',*,*,#363,.T.);
#468=ORIENTED_EDGE('',*,*,#364,.F.);
#469=ORIENTED_EDGE('',*,*,#363,.F.);
#470=ORIENTED_EDGE('',*,*,#365,.F.);
#471=ORIENTED_EDGE('',*,*,#366,.T.);
#472=ORIENTED_EDGE('',*,*,#367,.F.);
#473=ORIENTED_EDGE('',*,*,#366,.F.);
#474=ORIENTED_EDGE('',*,*,#368,.F.);
#475=ORIENTED_EDGE('',*,*,#358,.T.);
#476=ORIENTED_EDGE('',*,*,#369,.F.);
#477=ORIENTED_EDGE('',*,*,#370,.T.);
#478=ORIENTED_EDGE('',*,*,#371,.F.);
#479=ORIENTED_EDGE('',*,*,#370,.F.);
#480=ORIENTED_EDGE('',*,*,#364,.T.);
#481=ORIENTED_EDGE('',*,*,#367,.T.);
#482=ORIENTED_EDGE('',*,*,#357,.T.);
#483=ORIENTED_EDGE('',*,*,#361,.T.);
#484=ORIENTED_EDGE('',*,*,#372,.F.);
#485=ORIENTED_EDGE('',*,*,#373,.T.);
#486=ORIENTED_EDGE('',*,*,#374,.F.);
#487=ORIENTED_EDGE('',*,*,#375,.F.);
#488=ORIENTED_EDGE('',*,*,#365,.T.);
#489=ORIENTED_EDGE('',*,*,#362,.T.);
#490=ORIENTED_EDGE('',*,*,#359,.T.);
#491=ORIENTED_EDGE('',*,*,#368,.T.);
#492=ORIENTED_EDGE('',*,*,#376,.T.);
#493=ORIENTED_EDGE('',*,*,#375,.T.);
#494=ORIENTED_EDGE('',*,*,#377,.F.);
#495=ORIENTED_EDGE('',*,*,#373,.F.);
#496=ORIENTED_EDGE('',*,*,#377,.T.);
#497=ORIENTED_EDGE('',*,*,#374,.T.);
#498=ORIENTED_EDGE('',*,*,#369,.T.);
#499=ORIENTED_EDGE('',*,*,#371,.T.);
#500=ORIENTED_EDGE('',*,*,#378,.T.);
#501=ORIENTED_EDGE('',*,*,#379,.T.);
#502=ORIENTED_EDGE('',*,*,#380,.T.);
#503=ORIENTED_EDGE('',*,*,#381,.T.);
#504=ORIENTED_EDGE('',*,*,#382,.T.);
#505=ORIENTED_EDGE('',*,*,#372,.T.);
#506=ORIENTED_EDGE('',*,*,#383,.T.);
#507=ORIENTED_EDGE('',*,*,#379,.F.);
#508=ORIENTED_EDGE('',*,*,#384,.F.);
#509=ORIENTED_EDGE('',*,*,#385,.F.);
#510=ORIENTED_EDGE('',*,*,#386,.F.);
#511=ORIENTED_EDGE('',*,*,#387,.T.);
#512=ORIENTED_EDGE('',*,*,#388,.F.);
#513=ORIENTED_EDGE('',*,*,#389,.T.);
#514=ORIENTED_EDGE('',*,*,#390,.T.);
#515=ORIENTED_EDGE('',*,*,#391,.T.);
#516=ORIENTED_EDGE('',*,*,#392,.T.);
#517=ORIENTED_EDGE('',*,*,#393,.F.);
#518=ORIENTED_EDGE('',*,*,#385,.T.);
#519=ORIENTED_EDGE('',*,*,#394,.T.);
#520=ORIENTED_EDGE('',*,*,#395,.T.);
#521=ORIENTED_EDGE('',*,*,#396,.T.);
#522=ORIENTED_EDGE('',*,*,#397,.F.);
#523=ORIENTED_EDGE('',*,*,#398,.F.);
#524=ORIENTED_EDGE('',*,*,#399,.T.);
#525=ORIENTED_EDGE('',*,*,#400,.T.);
#526=ORIENTED_EDGE('',*,*,#394,.F.);
#527=ORIENTED_EDGE('',*,*,#384,.T.);
#528=ORIENTED_EDGE('',*,*,#378,.F.);
#529=ORIENTED_EDGE('',*,*,#401,.T.);
#530=ORIENTED_EDGE('',*,*,#402,.T.);
#531=ORIENTED_EDGE('',*,*,#402,.F.);
#532=ORIENTED_EDGE('',*,*,#403,.F.);
#533=ORIENTED_EDGE('',*,*,#404,.F.);
#534=ORIENTED_EDGE('',*,*,#405,.F.);
#535=ORIENTED_EDGE('',*,*,#406,.F.);
#536=ORIENTED_EDGE('',*,*,#407,.F.);
#537=ORIENTED_EDGE('',*,*,#399,.F.);
#538=ORIENTED_EDGE('',*,*,#408,.F.);
#539=ORIENTED_EDGE('',*,*,#409,.F.);
#540=ORIENTED_EDGE('',*,*,#410,.F.);
#541=ORIENTED_EDGE('',*,*,#411,.F.);
#542=ORIENTED_EDGE('',*,*,#412,.F.);
#543=ORIENTED_EDGE('',*,*,#413,.F.);
#544=ORIENTED_EDGE('',*,*,#414,.F.);
#545=ORIENTED_EDGE('',*,*,#415,.T.);
#546=ORIENTED_EDGE('',*,*,#380,.F.);
#547=ORIENTED_EDGE('',*,*,#383,.F.);
#548=ORIENTED_EDGE('',*,*,#376,.F.);
#549=ORIENTED_EDGE('',*,*,#390,.F.);
#550=ORIENTED_EDGE('',*,*,#416,.T.);
#551=ORIENTED_EDGE('',*,*,#391,.F.);
#552=ORIENTED_EDGE('',*,*,#417,.T.);
#553=ORIENTED_EDGE('',*,*,#418,.T.);
#554=ORIENTED_EDGE('',*,*,#388,.T.);
#555=ORIENTED_EDGE('',*,*,#419,.T.);
#556=ORIENTED_EDGE('',*,*,#420,.T.);
#557=ORIENTED_EDGE('',*,*,#421,.T.);
#558=ORIENTED_EDGE('',*,*,#419,.F.);
#559=ORIENTED_EDGE('',*,*,#387,.F.);
#560=ORIENTED_EDGE('',*,*,#422,.F.);
#561=ORIENTED_EDGE('',*,*,#423,.F.);
#562=ORIENTED_EDGE('',*,*,#386,.T.);
#563=ORIENTED_EDGE('',*,*,#393,.T.);
#564=ORIENTED_EDGE('',*,*,#424,.T.);
#565=ORIENTED_EDGE('',*,*,#425,.T.);
#566=ORIENTED_EDGE('',*,*,#422,.T.);
#567=ORIENTED_EDGE('',*,*,#421,.F.);
#568=ORIENTED_EDGE('',*,*,#426,.F.);
#569=ORIENTED_EDGE('',*,*,#424,.F.);
#570=ORIENTED_EDGE('',*,*,#392,.F.);
#571=ORIENTED_EDGE('',*,*,#416,.F.);
#572=ORIENTED_EDGE('',*,*,#389,.F.);
#573=ORIENTED_EDGE('',*,*,#382,.F.);
#574=ORIENTED_EDGE('',*,*,#427,.T.);
#575=ORIENTED_EDGE('',*,*,#428,.T.);
#576=ORIENTED_EDGE('',*,*,#427,.F.);
#577=ORIENTED_EDGE('',*,*,#428,.F.);
#578=ORIENTED_EDGE('',*,*,#426,.T.);
#579=ORIENTED_EDGE('',*,*,#420,.F.);
#580=ORIENTED_EDGE('',*,*,#423,.T.);
#581=ORIENTED_EDGE('',*,*,#425,.F.);
#582=ORIENTED_EDGE('',*,*,#395,.F.);
#583=ORIENTED_EDGE('',*,*,#400,.F.);
#584=ORIENTED_EDGE('',*,*,#407,.T.);
#585=ORIENTED_EDGE('',*,*,#429,.T.);
#586=ORIENTED_EDGE('',*,*,#430,.F.);
#587=ORIENTED_EDGE('',*,*,#417,.F.);
#588=ORIENTED_EDGE('',*,*,#381,.F.);
#589=ORIENTED_EDGE('',*,*,#415,.F.);
#590=ORIENTED_EDGE('',*,*,#431,.F.);
#591=ORIENTED_EDGE('',*,*,#432,.F.);
#592=ORIENTED_EDGE('',*,*,#403,.T.);
#593=ORIENTED_EDGE('',*,*,#401,.F.);
#594=ORIENTED_EDGE('',*,*,#418,.F.);
#595=ORIENTED_EDGE('',*,*,#430,.T.);
#596=ORIENTED_EDGE('',*,*,#433,.T.);
#597=ORIENTED_EDGE('',*,*,#434,.T.);
#598=ORIENTED_EDGE('',*,*,#435,.T.);
#599=ORIENTED_EDGE('',*,*,#431,.T.);
#600=ORIENTED_EDGE('',*,*,#436,.T.);
#601=ORIENTED_EDGE('',*,*,#437,.T.);
#602=ORIENTED_EDGE('',*,*,#438,.F.);
#603=ORIENTED_EDGE('',*,*,#439,.T.);
#604=ORIENTED_EDGE('',*,*,#436,.F.);
#605=ORIENTED_EDGE('',*,*,#439,.F.);
#606=ORIENTED_EDGE('',*,*,#440,.F.);
#607=ORIENTED_EDGE('',*,*,#441,.T.);
#608=ORIENTED_EDGE('',*,*,#437,.F.);
#609=ORIENTED_EDGE('',*,*,#441,.F.);
#610=ORIENTED_EDGE('',*,*,#442,.T.);
#611=ORIENTED_EDGE('',*,*,#443,.T.);
#612=ORIENTED_EDGE('',*,*,#444,.T.);
#613=ORIENTED_EDGE('',*,*,#445,.T.);
#614=ORIENTED_EDGE('',*,*,#446,.T.);
#615=ORIENTED_EDGE('',*,*,#447,.T.);
#616=ORIENTED_EDGE('',*,*,#448,.T.);
#617=ORIENTED_EDGE('',*,*,#449,.T.);
#618=ORIENTED_EDGE('',*,*,#438,.T.);
#619=ORIENTED_EDGE('',*,*,#440,.T.);
#620=ORIENTED_EDGE('',*,*,#408,.T.);
#621=ORIENTED_EDGE('',*,*,#398,.T.);
#622=ORIENTED_EDGE('',*,*,#450,.T.);
#623=ORIENTED_EDGE('',*,*,#442,.F.);
#624=ORIENTED_EDGE('',*,*,#451,.F.);
#625=ORIENTED_EDGE('',*,*,#409,.T.);
#626=ORIENTED_EDGE('',*,*,#451,.T.);
#627=ORIENTED_EDGE('',*,*,#449,.F.);
#628=ORIENTED_EDGE('',*,*,#452,.F.);
#629=ORIENTED_EDGE('',*,*,#410,.T.);
#630=ORIENTED_EDGE('',*,*,#452,.T.);
#631=ORIENTED_EDGE('',*,*,#448,.F.);
#632=ORIENTED_EDGE('',*,*,#453,.F.);
#633=ORIENTED_EDGE('',*,*,#411,.T.);
#634=ORIENTED_EDGE('',*,*,#453,.T.);
#635=ORIENTED_EDGE('',*,*,#447,.F.);
#636=ORIENTED_EDGE('',*,*,#454,.F.);
#637=ORIENTED_EDGE('',*,*,#412,.T.);
#638=ORIENTED_EDGE('',*,*,#454,.T.);
#639=ORIENTED_EDGE('',*,*,#446,.F.);
#640=ORIENTED_EDGE('',*,*,#455,.F.);
#641=ORIENTED_EDGE('',*,*,#413,.T.);
#642=ORIENTED_EDGE('',*,*,#455,.T.);
#643=ORIENTED_EDGE('',*,*,#445,.F.);
#644=ORIENTED_EDGE('',*,*,#456,.F.);
#645=ORIENTED_EDGE('',*,*,#414,.T.);
#646=ORIENTED_EDGE('',*,*,#456,.T.);
#647=ORIENTED_EDGE('',*,*,#444,.F.);
#648=ORIENTED_EDGE('',*,*,#457,.F.);
#649=ORIENTED_EDGE('',*,*,#396,.F.);
#650=ORIENTED_EDGE('',*,*,#457,.T.);
#651=ORIENTED_EDGE('',*,*,#443,.F.);
#652=ORIENTED_EDGE('',*,*,#450,.F.);
#653=ORIENTED_EDGE('',*,*,#397,.T.);
#654=ORIENTED_EDGE('',*,*,#405,.T.);
#655=ORIENTED_EDGE('',*,*,#458,.T.);
#656=ORIENTED_EDGE('',*,*,#434,.F.);
#657=ORIENTED_EDGE('',*,*,#459,.F.);
#658=ORIENTED_EDGE('',*,*,#406,.T.);
#659=ORIENTED_EDGE('',*,*,#459,.T.);
#660=ORIENTED_EDGE('',*,*,#433,.F.);
#661=ORIENTED_EDGE('',*,*,#429,.F.);
#662=ORIENTED_EDGE('',*,*,#404,.T.);
#663=ORIENTED_EDGE('',*,*,#432,.T.);
#664=ORIENTED_EDGE('',*,*,#435,.F.);
#665=ORIENTED_EDGE('',*,*,#458,.F.);
#666=PLANE('',#738);
#667=PLANE('',#741);
#668=PLANE('',#742);
#669=PLANE('',#745);
#670=PLANE('',#752);
#671=PLANE('',#753);
#672=PLANE('',#754);
#673=PLANE('',#756);
#674=PLANE('',#765);
#675=PLANE('',#782);
#676=PLANE('',#785);
#677=PLANE('',#786);
#678=PLANE('',#787);
#679=PLANE('',#788);
#680=PLANE('',#797);
#681=PLANE('',#803);
#682=PLANE('',#805);
#683=PLANE('',#807);
#684=PLANE('',#809);
#685=PLANE('',#810);
#686=ADVANCED_FACE('',(#49),#666,.F.);
#687=ADVANCED_FACE('',(#50),#667,.F.);
#688=ADVANCED_FACE('',(#51),#668,.F.);
#689=ADVANCED_FACE('',(#52),#669,.F.);
#690=ADVANCED_FACE('',(#53,#22),#31,.F.);
#691=ADVANCED_FACE('',(#54,#23),#32,.T.);
#692=ADVANCED_FACE('',(#55),#670,.T.);
#693=ADVANCED_FACE('',(#56,#24),#671,.T.);
#694=ADVANCED_FACE('',(#57),#672,.T.);
#695=ADVANCED_FACE('',(#58),#33,.F.);
#696=ADVANCED_FACE('',(#59,#25),#673,.T.);
#697=ADVANCED_FACE('',(#60),#34,.F.);
#698=ADVANCED_FACE('',(#61),#35,.F.);
#699=ADVANCED_FACE('',(#62),#674,.F.);
#700=ADVANCED_FACE('',(#63),#36,.F.);
#701=ADVANCED_FACE('',(#64),#37,.F.);
#702=ADVANCED_FACE('',(#65),#38,.F.);
#703=ADVANCED_FACE('',(#66),#39,.F.);
#704=ADVANCED_FACE('',(#67),#675,.F.);
#705=ADVANCED_FACE('',(#68),#40,.T.);
#706=ADVANCED_FACE('',(#69,#26),#676,.F.);
#707=ADVANCED_FACE('',(#70),#677,.T.);
#708=ADVANCED_FACE('',(#71),#678,.T.);
#709=ADVANCED_FACE('',(#72,#27,#28),#679,.T.);
#710=ADVANCED_FACE('',(#73),#41,.F.);
#711=ADVANCED_FACE('',(#74),#42,.F.);
#712=ADVANCED_FACE('',(#75,#29,#30),#680,.F.);
#713=ADVANCED_FACE('',(#76),#43,.F.);
#714=ADVANCED_FACE('',(#77),#681,.T.);
#715=ADVANCED_FACE('',(#78),#44,.F.);
#716=ADVANCED_FACE('',(#79),#682,.T.);
#717=ADVANCED_FACE('',(#80),#45,.F.);
#718=ADVANCED_FACE('',(#81),#683,.T.);
#719=ADVANCED_FACE('',(#82),#46,.F.);
#720=ADVANCED_FACE('',(#83),#684,.T.);
#721=ADVANCED_FACE('',(#84),#685,.T.);
#722=ADVANCED_FACE('',(#85),#47,.T.);
#723=ADVANCED_FACE('',(#86),#48,.T.);
#724=CLOSED_SHELL('',(#686,#687,#688,#689,#690,#691,#692,#693,#694,#695,
#696,#697,#698,#699,#700,#701,#702,#703,#704,#705,#706,#707,#708,#709,#710,
#711,#712,#713,#714,#715,#716,#717,#718,#719,#720,#721,#722,#723));
#725=DERIVED_UNIT_ELEMENT(#727,1.);
#726=DERIVED_UNIT_ELEMENT(#1276,-3.);
#727=(
MASS_UNIT()
NAMED_UNIT(*)
SI_UNIT(.KILO.,.GRAM.)
);
#728=DERIVED_UNIT((#725,#726));
#729=MEASURE_REPRESENTATION_ITEM('density measure',
POSITIVE_RATIO_MEASURE(7850.),#728);
#730=PROPERTY_DEFINITION_REPRESENTATION(#735,#732);
#731=PROPERTY_DEFINITION_REPRESENTATION(#736,#733);
#732=REPRESENTATION('material name',(#734),#1273);
#733=REPRESENTATION('density',(#729),#1273);
#734=DESCRIPTIVE_REPRESENTATION_ITEM('Steel','Steel');
#735=PROPERTY_DEFINITION('material property','material name',#1283);
#736=PROPERTY_DEFINITION('material property','density of part',#1283);
#737=AXIS2_PLACEMENT_3D('',#1024,#813,#814);
#738=AXIS2_PLACEMENT_3D('',#1025,#815,#816);
#739=AXIS2_PLACEMENT_3D('',#1028,#817,#818);
#740=AXIS2_PLACEMENT_3D('',#1032,#820,#821);
#741=AXIS2_PLACEMENT_3D('',#1034,#823,#824);
#742=AXIS2_PLACEMENT_3D('',#1040,#828,#829);
#743=AXIS2_PLACEMENT_3D('',#1042,#830,#831);
#744=AXIS2_PLACEMENT_3D('',#1044,#832,#833);
#745=AXIS2_PLACEMENT_3D('',#1046,#835,#836);
#746=AXIS2_PLACEMENT_3D('',#1049,#839,#840);
#747=AXIS2_PLACEMENT_3D('',#1051,#841,#842);
#748=AXIS2_PLACEMENT_3D('',#1054,#844,#845);
#749=AXIS2_PLACEMENT_3D('',#1055,#846,#847);
#750=AXIS2_PLACEMENT_3D('',#1058,#848,#849);
#751=AXIS2_PLACEMENT_3D('',#1062,#851,#852);
#752=AXIS2_PLACEMENT_3D('',#1064,#854,#855);
#753=AXIS2_PLACEMENT_3D('',#1067,#858,#859);
#754=AXIS2_PLACEMENT_3D('',#1068,#860,#861);
#755=AXIS2_PLACEMENT_3D('',#1069,#862,#863);
#756=AXIS2_PLACEMENT_3D('',#1092,#866,#867);
#757=AXIS2_PLACEMENT_3D('',#1094,#868,#869);
#758=AXIS2_PLACEMENT_3D('',#1101,#873,#874);
#759=AXIS2_PLACEMENT_3D('',#1103,#875,#876);
#760=AXIS2_PLACEMENT_3D('',#1105,#877,#878);
#761=AXIS2_PLACEMENT_3D('',#1109,#881,#882);
#762=AXIS2_PLACEMENT_3D('',#1136,#885,#886);
#763=AXIS2_PLACEMENT_3D('',#1152,#889,#890);
#764=AXIS2_PLACEMENT_3D('',#1154,#891,#892);
#765=AXIS2_PLACEMENT_3D('',#1156,#894,#895);
#766=AXIS2_PLACEMENT_3D('',#1160,#897,#898);
#767=AXIS2_PLACEMENT_3D('',#1164,#900,#901);
#768=AXIS2_PLACEMENT_3D('',#1167,#903,#904);
#769=AXIS2_PLACEMENT_3D('',#1171,#906,#907);
#770=AXIS2_PLACEMENT_3D('',#1175,#909,#910);
#771=AXIS2_PLACEMENT_3D('',#1178,#912,#913);
#772=AXIS2_PLACEMENT_3D('',#1179,#914,#915);
#773=AXIS2_PLACEMENT_3D('',#1181,#916,#917);
#774=AXIS2_PLACEMENT_3D('',#1182,#918,#919);
#775=AXIS2_PLACEMENT_3D('',#1184,#920,#921);
#776=AXIS2_PLACEMENT_3D('',#1186,#923,#924);
#777=AXIS2_PLACEMENT_3D('',#1190,#926,#927);
#778=AXIS2_PLACEMENT_3D('',#1192,#929,#930);
#779=AXIS2_PLACEMENT_3D('',#1195,#932,#933);
#780=AXIS2_PLACEMENT_3D('',#1196,#934,#935);
#781=AXIS2_PLACEMENT_3D('',#1199,#937,#938);
#782=AXIS2_PLACEMENT_3D('',#1200,#939,#940);
#783=AXIS2_PLACEMENT_3D('',#1202,#942,#943);
#784=AXIS2_PLACEMENT_3D('',#1205,#945,#946);
#785=AXIS2_PLACEMENT_3D('',#1206,#947,#948);
#786=AXIS2_PLACEMENT_3D('',#1207,#949,#950);
#787=AXIS2_PLACEMENT_3D('',#1211,#953,#954);
#788=AXIS2_PLACEMENT_3D('',#1215,#957,#958);
#789=AXIS2_PLACEMENT_3D('',#1217,#959,#960);
#790=AXIS2_PLACEMENT_3D('',#1220,#962,#963);
#791=AXIS2_PLACEMENT_3D('',#1222,#964,#965);
#792=AXIS2_PLACEMENT_3D('',#1224,#966,#967);
#793=AXIS2_PLACEMENT_3D('',#1225,#968,#969);
#794=AXIS2_PLACEMENT_3D('',#1227,#970,#971);
#795=AXIS2_PLACEMENT_3D('',#1229,#973,#974);
#796=AXIS2_PLACEMENT_3D('',#1231,#975,#976);
#797=AXIS2_PLACEMENT_3D('',#1233,#978,#979);
#798=AXIS2_PLACEMENT_3D('',#1236,#980,#981);
#799=AXIS2_PLACEMENT_3D('',#1240,#983,#984);
#800=AXIS2_PLACEMENT_3D('',#1244,#986,#987);
#801=AXIS2_PLACEMENT_3D('',#1248,#989,#990);
#802=AXIS2_PLACEMENT_3D('',#1250,#992,#993);
#803=AXIS2_PLACEMENT_3D('',#1253,#996,#997);
#804=AXIS2_PLACEMENT_3D('',#1255,#999,#1000);
#805=AXIS2_PLACEMENT_3D('',#1257,#1002,#1003);
#806=AXIS2_PLACEMENT_3D('',#1259,#1005,#1006);
#807=AXIS2_PLACEMENT_3D('',#1261,#1008,#1009);
#808=AXIS2_PLACEMENT_3D('',#1263,#1011,#1012);
#809=AXIS2_PLACEMENT_3D('',#1265,#1014,#1015);
#810=AXIS2_PLACEMENT_3D('',#1266,#1016,#1017);
#811=AXIS2_PLACEMENT_3D('',#1269,#1020,#1021);
#812=AXIS2_PLACEMENT_3D('',#1270,#1022,#1023);
#813=DIRECTION('axis',(0.,0.,1.));
#814=DIRECTION('refdir',(1.,0.,0.));
#815=DIRECTION('center_axis',(0.,0.,-1.));
#816=DIRECTION('ref_axis',(1.,0.,0.));
#817=DIRECTION('center_axis',(0.,0.,1.));
#818=DIRECTION('ref_axis',(-1.,0.,0.));
#819=DIRECTION('',(0.,-1.,0.));
#820=DIRECTION('center_axis',(0.,0.,-1.));
#821=DIRECTION('ref_axis',(-1.,0.,0.));
#822=DIRECTION('',(0.,-1.,0.));
#823=DIRECTION('center_axis',(-1.,0.,0.));
#824=DIRECTION('ref_axis',(0.,0.,-1.));
#825=DIRECTION('',(0.,0.,1.));
#826=DIRECTION('',(0.,0.,-1.));
#827=DIRECTION('',(0.,-1.,0.));
#828=DIRECTION('center_axis',(0.,0.,1.));
#829=DIRECTION('ref_axis',(-1.,0.,0.));
#830=DIRECTION('center_axis',(0.,0.,-1.));
#831=DIRECTION('ref_axis',(-1.,0.,0.));
#832=DIRECTION('center_axis',(0.,0.,1.));
#833=DIRECTION('ref_axis',(-1.,0.,0.));
#834=DIRECTION('',(0.,-1.,0.));
#835=DIRECTION('center_axis',(1.,0.,0.));
#836=DIRECTION('ref_axis',(0.,0.,1.));
#837=DIRECTION('',(0.,0.,-1.));
#838=DIRECTION('',(0.,0.,1.));
#839=DIRECTION('center_axis',(0.,0.,1.));
#840=DIRECTION('ref_axis',(-1.,0.,0.));
#841=DIRECTION('center_axis',(0.,0.,-1.));
#842=DIRECTION('ref_axis',(-1.,0.,0.));
#843=DIRECTION('',(0.,0.,-1.));
#844=DIRECTION('center_axis',(0.,0.,1.));
#845=DIRECTION('ref_axis',(-1.,0.,0.));
#846=DIRECTION('center_axis',(0.,0.,1.));
#847=DIRECTION('ref_axis',(1.,-1.22464679914735E-16,0.));
#848=DIRECTION('center_axis',(0.,0.,-1.));
#849=DIRECTION('ref_axis',(-1.,0.,0.));
#850=DIRECTION('',(0.,0.,1.));
#851=DIRECTION('center_axis',(0.,0.,1.));
#852=DIRECTION('ref_axis',(-1.,0.,0.));
#853=DIRECTION('',(0.,0.,1.));
#854=DIRECTION('center_axis',(-1.,0.,0.));
#855=DIRECTION('ref_axis',(0.,-1.,0.));
#856=DIRECTION('',(-3.13022457832416E-74,-1.,0.));
#857=DIRECTION('',(0.,-1.,0.));
#858=DIRECTION('center_axis',(0.,0.,1.));
#859=DIRECTION('ref_axis',(-1.,0.,0.));
#860=DIRECTION('center_axis',(0.,0.,1.));
#861=DIRECTION('ref_axis',(-1.,0.,0.));
#862=DIRECTION('center_axis',(1.,3.8821894941979E-30,0.));
#863=DIRECTION('ref_axis',(0.,0.707106781186553,-0.707106781186542));
#864=DIRECTION('',(1.,3.8821894941979E-30,0.));
#865=DIRECTION('',(-1.,-3.8821894941979E-30,0.));
#866=DIRECTION('center_axis',(0.,0.,1.));
#867=DIRECTION('ref_axis',(-1.,0.,0.));
#868=DIRECTION('center_axis',(0.,0.,1.));
#869=DIRECTION('ref_axis',(-1.,0.,0.));
#870=DIRECTION('',(-3.13022457832416E-74,-1.,0.));
#871=DIRECTION('',(0.,-1.,0.));
#872=DIRECTION('',(-1.,0.,0.));
#873=DIRECTION('center_axis',(0.,0.,1.));
#874=DIRECTION('ref_axis',(-0.887187638124588,-0.461408815215873,0.));
#875=DIRECTION('center_axis',(0.,0.,-1.));
#876=DIRECTION('ref_axis',(0.948207779374161,0.317650762842345,0.));
#877=DIRECTION('center_axis',(0.,0.,1.));
#878=DIRECTION('ref_axis',(0.98863948358986,-0.150306258975382,0.));
#879=DIRECTION('',(-1.,0.,0.));
#880=DIRECTION('',(-3.13022457832416E-74,-1.,0.));
#881=DIRECTION('center_axis',(-1.,0.,0.));
#882=DIRECTION('ref_axis',(0.,-0.707106781186547,-0.707106781186547));
#883=DIRECTION('',(-1.,0.,0.));
#884=DIRECTION('',(1.,0.,0.));
#885=DIRECTION('center_axis',(0.,-1.,0.));
#886=DIRECTION('ref_axis',(0.707106781186546,0.,-0.707106781186549));
#887=DIRECTION('',(0.,1.,0.));
#888=DIRECTION('',(0.,1.,0.));
#889=DIRECTION('center_axis',(0.,1.,0.));
#890=DIRECTION('ref_axis',(0.707106781186546,0.,-0.707106781186549));
#891=DIRECTION('center_axis',(3.8821894941979E-30,-1.,8.74191357972564E-16));
#892=DIRECTION('ref_axis',(0.707106781186546,0.,-0.707106781186549));
#893=DIRECTION('',(0.,1.,0.));
#894=DIRECTION('center_axis',(1.,0.,-4.28823643261466E-15));
#895=DIRECTION('ref_axis',(0.,1.,0.));
#896=DIRECTION('',(-4.28823643261466E-15,-8.74191357972564E-16,-1.));
#897=DIRECTION('center_axis',(1.,0.,-4.28823643261466E-15));
#898=DIRECTION('ref_axis',(4.28823643261466E-15,-1.82911889526678E-15,1.));
#899=DIRECTION('',(0.,-1.,0.));
#900=DIRECTION('center_axis',(1.,0.,-4.28823643261466E-15));
#901=DIRECTION('ref_axis',(-1.56873885725337E-29,1.,-3.65823779053356E-15));
#902=DIRECTION('',(4.28823643261466E-15,0.,1.));
#903=DIRECTION('center_axis',(-1.,0.,4.28823643261466E-15));
#904=DIRECTION('ref_axis',(-4.28823643261466E-15,-3.49676543189026E-15,
-1.));
#905=DIRECTION('',(-4.28823643261466E-15,0.,-1.));
#906=DIRECTION('center_axis',(-1.,0.,4.28823643261466E-15));
#907=DIRECTION('ref_axis',(-2.99899138426787E-29,1.,-6.99353086378053E-15));
#908=DIRECTION('',(0.,1.,0.));
#909=DIRECTION('center_axis',(-1.,0.,4.28823643261466E-15));
#910=DIRECTION('ref_axis',(4.28823643261466E-15,-3.49676543189026E-15,1.));
#911=DIRECTION('',(4.28823643261466E-15,0.,1.));
#912=DIRECTION('center_axis',(-1.,0.,4.28823643261466E-15));
#913=DIRECTION('ref_axis',(2.2492435382009E-29,-1.,5.24514814783538E-15));
#914=DIRECTION('center_axis',(3.13022457832415E-74,1.,0.));
#915=DIRECTION('ref_axis',(-0.707106781186546,0.,-0.707106781186549));
#916=DIRECTION('center_axis',(3.8821894941979E-30,-1.,8.74191357972564E-16));
#917=DIRECTION('ref_axis',(-0.707106781186546,0.,-0.707106781186549));
#918=DIRECTION('center_axis',(0.,1.,0.));
#919=DIRECTION('ref_axis',(-0.707106781186546,0.,-0.707106781186549));
#920=DIRECTION('center_axis',(0.,1.,0.));
#921=DIRECTION('ref_axis',(-0.707106781186546,0.,-0.707106781186549));
#922=DIRECTION('',(-3.13022457832416E-74,-1.,0.));
#923=DIRECTION('center_axis',(0.,0.,-1.));
#924=DIRECTION('ref_axis',(0.98863948358986,-0.150306258975382,0.));
#925=DIRECTION('',(0.,0.,-1.));
#926=DIRECTION('center_axis',(0.,0.,-1.));
#927=DIRECTION('ref_axis',(0.98863948358986,-0.150306258975382,0.));
#928=DIRECTION('',(0.,0.,1.));
#929=DIRECTION('center_axis',(0.,0.,-1.));
#930=DIRECTION('ref_axis',(0.948207779374161,0.317650762842345,0.));
#931=DIRECTION('',(0.,0.,1.));
#932=DIRECTION('center_axis',(0.,0.,1.));
#933=DIRECTION('ref_axis',(0.948207779374161,0.317650762842345,0.));
#934=DIRECTION('center_axis',(0.,0.,-1.));
#935=DIRECTION('ref_axis',(-0.887187638124588,-0.461408815215873,0.));
#936=DIRECTION('',(0.,0.,-1.));
#937=DIRECTION('center_axis',(0.,0.,-1.));
#938=DIRECTION('ref_axis',(-0.887187638124588,-0.461408815215873,0.));
#939=DIRECTION('center_axis',(0.,-1.,0.));
#940=DIRECTION('ref_axis',(-1.,0.,0.));
#941=DIRECTION('',(1.,0.,0.));
#942=DIRECTION('center_axis',(0.,0.,1.));
#943=DIRECTION('ref_axis',(-1.,0.,0.));
#944=DIRECTION('',(0.,0.,-1.));
#945=DIRECTION('center_axis',(0.,0.,1.));
#946=DIRECTION('ref_axis',(-1.,0.,0.));
#947=DIRECTION('center_axis',(0.,0.,1.));
#948=DIRECTION('ref_axis',(-1.,0.,0.));
#949=DIRECTION('center_axis',(0.,1.,0.));
#950=DIRECTION('ref_axis',(4.28823643261466E-15,0.,1.));
#951=DIRECTION('',(1.,0.,-4.44089209850064E-15));
#952=DIRECTION('',(0.,0.,1.));
#953=DIRECTION('center_axis',(3.8821894941979E-30,-1.,8.74191357972564E-16));
#954=DIRECTION('ref_axis',(-4.28823643261466E-15,-8.74191357972564E-16,
-1.));
#955=DIRECTION('',(0.,0.,-1.));
#956=DIRECTION('',(1.,0.,-4.44089209850064E-15));
#957=DIRECTION('center_axis',(1.,-3.13022457832415E-74,8.81079890282914E-60));
#958=DIRECTION('ref_axis',(3.13022457832416E-74,1.,0.));
#959=DIRECTION('center_axis',(1.,0.,0.));
#960=DIRECTION('ref_axis',(0.,1.,-1.82911889526678E-15));
#961=DIRECTION('',(0.,-1.,0.));
#962=DIRECTION('center_axis',(1.,-3.22319975111212E-74,8.81079890282914E-60));
#963=DIRECTION('ref_axis',(-8.81079890282915E-60,-3.65823779053356E-15,
1.));
#964=DIRECTION('center_axis',(-1.,3.13022457832415E-74,-8.81079890282914E-60));
#965=DIRECTION('ref_axis',(0.,-1.,0.));
#966=DIRECTION('center_axis',(-1.,3.13022457832415E-74,-8.81079890282914E-60));
#967=DIRECTION('ref_axis',(0.,-1.,0.));
#968=DIRECTION('center_axis',(1.,0.,-4.44089209850063E-15));
#969=DIRECTION('ref_axis',(0.,-1.,0.));
#970=DIRECTION('center_axis',(1.,0.,-4.28823643261466E-15));
#971=DIRECTION('ref_axis',(0.,1.,0.));
#972=DIRECTION('',(1.,0.,-4.44089209850063E-15));
#973=DIRECTION('center_axis',(1.,0.,-4.16333634234434E-15));
#974=DIRECTION('ref_axis',(0.,-1.,0.));
#975=DIRECTION('center_axis',(1.,0.,-4.28823643261466E-15));
#976=DIRECTION('ref_axis',(0.,1.,0.));
#977=DIRECTION('',(1.,0.,-4.16333634234434E-15));
#978=DIRECTION('center_axis',(1.,-3.13022457832415E-74,8.81079890282914E-60));
#979=DIRECTION('ref_axis',(3.13022457832416E-74,1.,0.));
#980=DIRECTION('center_axis',(-1.,0.,4.28823643261466E-15));
#981=DIRECTION('ref_axis',(-4.28823643261466E-15,-3.49676543189026E-15,
-1.));
#982=DIRECTION('',(-2.99899138426786E-30,-1.,-6.99353086378051E-16));
#983=DIRECTION('center_axis',(-1.,0.,4.28823643261466E-15));
#984=DIRECTION('ref_axis',(2.2492435382009E-29,-1.,5.24514814783538E-15));
#985=DIRECTION('',(4.28823643261466E-15,0.,1.));
#986=DIRECTION('center_axis',(-1.,0.,4.28823643261466E-15));
#987=DIRECTION('ref_axis',(4.28823643261466E-15,-3.49676543189026E-15,1.));
#988=DIRECTION('',(0.,1.,0.));
#989=DIRECTION('center_axis',(-1.,0.,4.28823643261466E-15));
#990=DIRECTION('ref_axis',(-2.99899138426787E-29,1.,-6.99353086378053E-15));
#991=DIRECTION('',(-4.28823643261466E-15,0.,-1.));
#992=DIRECTION('center_axis',(1.,0.,-4.44089209850064E-15));
#993=DIRECTION('ref_axis',(-4.44089209850064E-15,-3.49676543189026E-15,
-1.));
#994=DIRECTION('',(-1.,0.,4.44089209850064E-15));
#995=DIRECTION('',(1.,0.,-4.44089209850064E-15));
#996=DIRECTION('center_axis',(0.,-1.,0.));
#997=DIRECTION('ref_axis',(-4.28823643261466E-15,0.,-1.));
#998=DIRECTION('',(1.,0.,-4.44089209850064E-15));
#999=DIRECTION('center_axis',(1.,0.,-4.44089209850064E-15));
#1000=DIRECTION('ref_axis',(-3.10575159535833E-29,1.,-6.99353086378053E-15));
#1001=DIRECTION('',(1.,0.,-4.44089209850064E-15));
#1002=DIRECTION('center_axis',(-4.44089209850064E-15,0.,-1.));
#1003=DIRECTION('ref_axis',(0.,1.,0.));
#1004=DIRECTION('',(1.,0.,-4.44089209850064E-15));
#1005=DIRECTION('center_axis',(1.,0.,-4.44089209850064E-15));
#1006=DIRECTION('ref_axis',(4.44089209850064E-15,-3.49676543189026E-15,
1.));
#1007=DIRECTION('',(1.,0.,-4.44089209850064E-15));
#1008=DIRECTION('center_axis',(0.,1.,0.));
#1009=DIRECTION('ref_axis',(4.28823643261466E-15,0.,1.));
#1010=DIRECTION('',(1.,0.,-4.44089209850064E-15));
#1011=DIRECTION('center_axis',(1.,0.,-4.44089209850064E-15));
#1012=DIRECTION('ref_axis',(2.32931369651874E-29,-1.,5.24514814783538E-15));
#1013=DIRECTION('',(1.,0.,-4.44089209850064E-15));
#1014=DIRECTION('center_axis',(4.44089209850064E-15,-6.99353086378051E-16,
1.));
#1015=DIRECTION('ref_axis',(-2.99899138426786E-30,-1.,-6.99353086378051E-16));
#1016=DIRECTION('center_axis',(4.44089209850064E-15,0.,1.));
#1017=DIRECTION('ref_axis',(0.,-1.,0.));
#1018=DIRECTION('',(1.,0.,-4.44089209850064E-15));
#1019=DIRECTION('',(1.,0.,-4.44089209850064E-15));
#1020=DIRECTION('center_axis',(1.,0.,-4.44089209850064E-15));
#1021=DIRECTION('ref_axis',(-1.62458392984169E-29,1.,-3.65823779053356E-15));
#1022=DIRECTION('center_axis',(1.,0.,-4.44089209850064E-15));
#1023=DIRECTION('ref_axis',(4.44089209850064E-15,-1.82911889526678E-15,
1.));
#1024=CARTESIAN_POINT('',(0.,0.,0.));
#1025=CARTESIAN_POINT('Origin',(152.000002264977,0.,28.0000004172325));
#1026=CARTESIAN_POINT('',(157.000002339482,-64.8327895304929,28.0000004172325));
#1027=CARTESIAN_POINT('',(152.000002264977,-65.0638882674224,28.0000004172325));
#1028=CARTESIAN_POINT('Origin',(154.924481144989,-74.1322672649222,28.0000004172325));
#1029=CARTESIAN_POINT('',(157.000002339482,-63.5847645173407,28.0000004172325));
#1030=CARTESIAN_POINT('',(157.000002339482,0.,28.0000004172325));
#1031=CARTESIAN_POINT('',(152.000002264977,-63.7879439076703,28.0000004172325));
#1032=CARTESIAN_POINT('Origin',(154.924481144989,-74.1322672649222,28.0000004172325));
#1033=CARTESIAN_POINT('',(152.000002264977,0.,28.0000004172325));
#1034=CARTESIAN_POINT('Origin',(152.000002264977,0.,32.0000004768372));
#1035=CARTESIAN_POINT('',(152.000002264977,-65.0638882674224,32.0000004768372));
#1036=CARTESIAN_POINT('',(152.000002264977,-65.0638882674224,27.));
#1037=CARTESIAN_POINT('',(152.000002264977,-63.7879439076703,32.0000004768372));
#1038=CARTESIAN_POINT('',(152.000002264977,-63.7879439076703,27.));
#1039=CARTESIAN_POINT('',(152.000002264977,0.,32.0000004768372));
#1040=CARTESIAN_POINT('Origin',(157.000002339482,0.,32.0000004768372));
#1041=CARTESIAN_POINT('',(157.000002339482,-64.8327895304929,32.0000004768372));
#1042=CARTESIAN_POINT('Origin',(154.924481144989,-74.1322672649222,32.0000004768372));
#1043=CARTESIAN_POINT('',(157.000002339482,-63.5847645173407,32.0000004768372));
#1044=CARTESIAN_POINT('Origin',(154.924481144989,-74.1322672649222,32.0000004768372));
#1045=CARTESIAN_POINT('',(157.000002339482,0.,32.0000004768372));
#1046=CARTESIAN_POINT('Origin',(157.000002339482,0.,28.0000004172325));
#1047=CARTESIAN_POINT('',(157.000002339482,-64.8327895304929,27.));
#1048=CARTESIAN_POINT('',(157.000002339482,-63.5847645173407,27.));
#1049=CARTESIAN_POINT('Origin',(154.924481144989,-74.1322672649222,27.));
#1050=CARTESIAN_POINT('',(164.452758762793,-74.1322672649222,93.));
#1051=CARTESIAN_POINT('Origin',(154.924481144989,-74.1322672649222,93.));
#1052=CARTESIAN_POINT('',(164.452758762793,-74.1322672649222,27.));
#1053=CARTESIAN_POINT('',(164.452758762793,-74.1322672649222,27.));
#1054=CARTESIAN_POINT('Origin',(154.924481144989,-74.1322672649222,27.));
#1055=CARTESIAN_POINT('Origin',(154.924481144989,-74.1322672649222,27.));
#1056=CARTESIAN_POINT('',(144.240853301612,-72.9415957975393,27.));
#1057=CARTESIAN_POINT('',(144.240853301612,-75.322938732305,27.));
#1058=CARTESIAN_POINT('Origin',(154.924481144989,-74.1322672649222,27.));
#1059=CARTESIAN_POINT('',(144.240853301612,-72.9415957975393,93.));
#1060=CARTESIAN_POINT('',(144.240853301612,-72.9415957975393,27.));
#1061=CARTESIAN_POINT('',(144.240853301612,-75.322938732305,93.));
#1062=CARTESIAN_POINT('Origin',(154.924481144989,-74.1322672649222,93.));
#1063=CARTESIAN_POINT('',(144.240853301612,-75.322938732305,27.));
#1064=CARTESIAN_POINT('Origin',(144.240853301612,-72.9415957975393,27.));
#1065=CARTESIAN_POINT('',(144.240853301612,-73.6625136835348,27.));
#1066=CARTESIAN_POINT('',(144.240853301612,-60.0000008940697,93.));
#1067=CARTESIAN_POINT('Origin',(154.957553325327,-74.1322672649222,93.));
#1068=CARTESIAN_POINT('Origin',(147.473554,-73.750416,27.));
#1069=CARTESIAN_POINT('Origin',(140.607203650806,-87.2803833018436,29.5));
#1070=CARTESIAN_POINT('',(131.261650591008,-84.7803833018435,29.5));
#1071=CARTESIAN_POINT('',(125.240853301612,-87.2803833018436,27.));
#1072=CARTESIAN_POINT('Ctrl Pts',(131.261650591008,-84.7803833018436,29.5));
#1073=CARTESIAN_POINT('Ctrl Pts',(130.847780128255,-84.7803833018436,29.0846949732824));
#1074=CARTESIAN_POINT('Ctrl Pts',(130.398729605054,-84.8796253368598,28.7196671488532));
#1075=CARTESIAN_POINT('Ctrl Pts',(129.444670481128,-85.1863109612583,28.0902414091886));
#1076=CARTESIAN_POINT('Ctrl Pts',(128.939906444485,-85.3958926967523,27.8265166174048));
#1077=CARTESIAN_POINT('Ctrl Pts',(127.377640942473,-86.117395009987,27.1966856283202));
#1078=CARTESIAN_POINT('Ctrl Pts',(126.271655233707,-86.7213524642192,27.));
#1079=CARTESIAN_POINT('Ctrl Pts',(125.240853301612,-87.2803833018436,27.));
#1080=CARTESIAN_POINT('',(144.240853301612,-87.2803833018436,27.));
#1081=CARTESIAN_POINT('',(140.607203650806,-87.2803833018436,27.));
#1082=CARTESIAN_POINT('',(138.220056012216,-84.7803833018435,29.5));
#1083=CARTESIAN_POINT('Ctrl Pts',(144.240853301612,-87.2803833018436,27.));
#1084=CARTESIAN_POINT('Ctrl Pts',(143.210051369517,-86.7213524642192,27.));
#1085=CARTESIAN_POINT('Ctrl Pts',(142.104065660751,-86.117395009987,27.1966856283202));
#1086=CARTESIAN_POINT('Ctrl Pts',(140.541800158739,-85.3958926967522,27.8265166174048));
#1087=CARTESIAN_POINT('Ctrl Pts',(140.037036122096,-85.1863109612583,28.0902414091886));
#1088=CARTESIAN_POINT('Ctrl Pts',(139.08297699817,-84.8796253368598,28.7196671488532));
#1089=CARTESIAN_POINT('Ctrl Pts',(138.633926474969,-84.7803833018436,29.0846949732824));
#1090=CARTESIAN_POINT('Ctrl Pts',(138.220056012216,-84.7803833018436,29.5));
#1091=CARTESIAN_POINT('',(140.607203650806,-84.7803833018435,29.5));
#1092=CARTESIAN_POINT('Origin',(147.473554,-73.750416,27.));
#1093=CARTESIAN_POINT('',(176.973554,-73.750416,27.));
#1094=CARTESIAN_POINT('Origin',(147.473554,-73.750416,27.));
#1095=CARTESIAN_POINT('',(144.240853301612,-73.6625136835348,27.));
#1096=CARTESIAN_POINT('',(125.240853301612,-59.8688394322955,27.));
#1097=CARTESIAN_POINT('',(125.240853301612,-73.6625136835348,27.));
#1098=CARTESIAN_POINT('',(137.597401172694,-59.8688394322955,27.));
#1099=CARTESIAN_POINT('',(140.607203650806,-59.8688394322955,27.));
#1100=CARTESIAN_POINT('',(136.18509923233,-55.6709404152437,27.));
#1101=CARTESIAN_POINT('Origin',(138.436558315727,-57.2500008940697,27.));
#1102=CARTESIAN_POINT('',(155.014893112906,-49.2485125804286,27.));
#1103=CARTESIAN_POINT('Origin',(150.000002235174,-65.3600204929026,27.));
#1104=CARTESIAN_POINT('',(153.380307388115,-60.0000008940697,27.));
#1105=CARTESIAN_POINT('Origin',(153.380307388115,-54.5000008940697,27.));
#1106=CARTESIAN_POINT('',(144.240853301612,-60.0000008940697,27.));
#1107=CARTESIAN_POINT('',(156.736778236796,-60.0000008940697,27.));
#1108=CARTESIAN_POINT('',(144.240853301612,-73.6625136835348,27.));
#1109=CARTESIAN_POINT('Origin',(140.607203650806,-59.8688394322955,29.5));
#1110=CARTESIAN_POINT('',(138.220056012216,-62.3688394322955,29.5));
#1111=CARTESIAN_POINT('',(143.998944703884,-60.0000008941056,27.0034430367151));
#1112=CARTESIAN_POINT('Ctrl Pts',(138.220056012216,-62.3688394322955,29.5));
#1113=CARTESIAN_POINT('Ctrl Pts',(138.633926474969,-62.3688394322955,29.0846949732824));
#1114=CARTESIAN_POINT('Ctrl Pts',(139.08297699817,-62.2695973972792,28.7196671488532));
#1115=CARTESIAN_POINT('Ctrl Pts',(140.037036122096,-61.9629117728808,28.0902414091886));
#1116=CARTESIAN_POINT('Ctrl Pts',(140.541800158739,-61.7533300373868,27.8265166174048));
#1117=CARTESIAN_POINT('Ctrl Pts',(142.02303949868,-61.0692481007087,27.2293515149656));
#1118=CARTESIAN_POINT('Ctrl Pts',(143.038111141189,-60.5207058687879,27.0307992824026));
#1119=CARTESIAN_POINT('Ctrl Pts',(143.9989447039,-60.0000008941329,27.0034430367146));
#1120=CARTESIAN_POINT('',(138.436558315727,-60.0000008940697,27.0034430367113));
#1121=CARTESIAN_POINT('',(140.607203650806,-60.0000008940697,27.0034430367113));
#1122=CARTESIAN_POINT('Ctrl Pts',(138.436558315727,-60.0000008940697,27.0034430367113));
#1123=CARTESIAN_POINT('Ctrl Pts',(138.159459693457,-60.0000008940697,27.0034430367113));
#1124=CARTESIAN_POINT('Ctrl Pts',(137.87200781572,-59.95683192311,27.));
#1125=CARTESIAN_POINT('Ctrl Pts',(137.597401172694,-59.8688394322955,27.));
#1126=CARTESIAN_POINT('',(131.261650591008,-62.3688394322955,29.5));
#1127=CARTESIAN_POINT('Ctrl Pts',(125.240853301612,-59.8688394322955,27.));
#1128=CARTESIAN_POINT('Ctrl Pts',(126.271655233707,-60.4278702699199,27.));
#1129=CARTESIAN_POINT('Ctrl Pts',(127.377640942473,-61.0318277241521,27.1966856283202));
#1130=CARTESIAN_POINT('Ctrl Pts',(128.939906444485,-61.7533300373868,27.8265166174048));
#1131=CARTESIAN_POINT('Ctrl Pts',(129.444670481128,-61.9629117728808,28.0902414091886));
#1132=CARTESIAN_POINT('Ctrl Pts',(130.398729605054,-62.2695973972792,28.7196671488532));
#1133=CARTESIAN_POINT('Ctrl Pts',(130.847780128255,-62.3688394322955,29.0846949732824));
#1134=CARTESIAN_POINT('Ctrl Pts',(131.261650591008,-62.3688394322955,29.5));
#1135=CARTESIAN_POINT('',(140.607203650806,-62.3688394322955,29.5));
#1136=CARTESIAN_POINT('Origin',(125.240853301612,-73.6625136835348,35.5));
#1137=CARTESIAN_POINT('',(133.740853301612,-80.7206541089905,35.5));
#1138=CARTESIAN_POINT('',(133.739890019021,-79.9246113670695,35.3720356450589));
#1139=CARTESIAN_POINT('Ctrl Pts',(133.740853301612,-80.7206541089905,35.5));
#1140=CARTESIAN_POINT('Ctrl Pts',(133.740853301612,-80.4589486944086,35.4136295119742));
#1141=CARTESIAN_POINT('Ctrl Pts',(133.739890019021,-80.1846137546429,35.3720356450589));
#1142=CARTESIAN_POINT('Ctrl Pts',(133.739890019021,-79.9246113670695,35.3720356450589));
#1143=CARTESIAN_POINT('',(133.739890019021,-67.2246113670695,35.3720356450589));
#1144=CARTESIAN_POINT('',(133.739890019021,-73.6625136835348,35.3720356450589));
#1145=CARTESIAN_POINT('',(133.740853301612,-66.4285686251486,35.5));
#1146=CARTESIAN_POINT('Ctrl Pts',(133.739890019021,-67.2246113670695,35.3720356450589));
#1147=CARTESIAN_POINT('Ctrl Pts',(133.739890019021,-66.9646089794962,35.3720356450589));
#1148=CARTESIAN_POINT('Ctrl Pts',(133.740853301612,-66.6902740397305,35.4136295119742));
#1149=CARTESIAN_POINT('Ctrl Pts',(133.740853301612,-66.4285686251486,35.5));
#1150=CARTESIAN_POINT('',(133.740853301612,-62.3688394322955,35.5));
#1151=CARTESIAN_POINT('',(133.740853301612,-73.6625136835348,35.5));
#1152=CARTESIAN_POINT('Origin',(125.240853301612,-62.3688394322955,35.5));
#1153=CARTESIAN_POINT('',(133.740853301612,-84.7803833018435,35.5));
#1154=CARTESIAN_POINT('Origin',(125.240853301612,-84.7803833018435,35.5));
#1155=CARTESIAN_POINT('',(133.740853301612,-73.6625136835348,35.5));
#1156=CARTESIAN_POINT('Origin',(133.740853301612,-73.5746113670695,48.072035645059));
#1157=CARTESIAN_POINT('',(133.740853301612,-84.7803833018435,58.232035645059));
#1158=CARTESIAN_POINT('',(133.740853301612,-84.7803833018435,58.232035645059));
#1159=CARTESIAN_POINT('',(133.740853301612,-79.9246113670695,63.087807579833));
#1160=CARTESIAN_POINT('Origin',(133.740853301612,-79.9246113670695,58.232035645059));
#1161=CARTESIAN_POINT('',(133.740853301612,-67.2246113670695,63.087807579833));
#1162=CARTESIAN_POINT('',(133.740853301612,-67.2246113670695,63.087807579833));
#1163=CARTESIAN_POINT('',(133.740853301612,-62.3688394322955,58.232035645059));
#1164=CARTESIAN_POINT('Origin',(133.740853301612,-67.2246113670695,58.232035645059));
#1165=CARTESIAN_POINT('',(133.740853301612,-62.3688394322955,37.9120356450589));
#1166=CARTESIAN_POINT('',(133.740853301612,-64.6846113670695,37.9120356450589));
#1167=CARTESIAN_POINT('Origin',(133.740853301612,-67.2246113670695,37.9120356450589));
#1168=CARTESIAN_POINT('',(133.740853301612,-64.6846113670695,58.232035645059));
#1169=CARTESIAN_POINT('',(133.740853301612,-64.6846113670695,37.9120356450589));
#1170=CARTESIAN_POINT('',(133.740853301612,-67.2246113670695,60.772035645059));
#1171=CARTESIAN_POINT('Origin',(133.740853301612,-67.2246113670695,58.232035645059));
#1172=CARTESIAN_POINT('',(133.740853301612,-79.9246113670695,60.772035645059));
#1173=CARTESIAN_POINT('',(133.740853301612,-67.2246113670695,60.772035645059));
#1174=CARTESIAN_POINT('',(133.740853301612,-82.4646113670695,58.232035645059));
#1175=CARTESIAN_POINT('Origin',(133.740853301612,-79.9246113670695,58.232035645059));
#1176=CARTESIAN_POINT('',(133.740853301612,-82.4646113670695,37.9120356450589));
#1177=CARTESIAN_POINT('',(133.740853301612,-82.4646113670695,58.232035645059));
#1178=CARTESIAN_POINT('Origin',(133.740853301612,-79.9246113670695,37.9120356450589));
#1179=CARTESIAN_POINT('Origin',(144.240853301612,-73.6625136835348,35.5));
#1180=CARTESIAN_POINT('',(135.740853301612,-84.7803833018435,35.5));
#1181=CARTESIAN_POINT('Origin',(144.240853301612,-84.7803833018435,35.5));
#1182=CARTESIAN_POINT('Origin',(144.240853301612,-60.0000008940697,35.5));
#1183=CARTESIAN_POINT('',(135.740853301612,-62.3688394322955,35.5));
#1184=CARTESIAN_POINT('Origin',(144.240853301612,-62.3688394322955,35.5));
#1185=CARTESIAN_POINT('',(135.740853301612,-73.6625136835348,35.5));
#1186=CARTESIAN_POINT('Origin',(153.380307388115,-54.5000008940697,27.));
#1187=CARTESIAN_POINT('',(155.014893112906,-49.2485125804286,26.));
#1188=CARTESIAN_POINT('',(155.014893112906,-49.2485125804286,27.));
#1189=CARTESIAN_POINT('',(153.380307388115,-60.0000008940697,26.));
#1190=CARTESIAN_POINT('Origin',(153.380307388115,-54.5000008940697,26.));
#1191=CARTESIAN_POINT('',(153.380307388115,-60.0000008940697,27.));
#1192=CARTESIAN_POINT('Origin',(150.000002235174,-65.3600204929026,27.));
#1193=CARTESIAN_POINT('',(136.18509923233,-55.6709404152437,26.));
#1194=CARTESIAN_POINT('',(136.18509923233,-55.6709404152437,27.));
#1195=CARTESIAN_POINT('Origin',(150.000002235174,-65.3600204929026,26.));
#1196=CARTESIAN_POINT('Origin',(138.436558315727,-57.2500008940697,27.));
#1197=CARTESIAN_POINT('',(138.436558315727,-60.0000008940697,26.));
#1198=CARTESIAN_POINT('',(138.436558315727,-60.0000008940697,27.));
#1199=CARTESIAN_POINT('Origin',(138.436558315727,-57.2500008940697,26.));
#1200=CARTESIAN_POINT('Origin',(166.000002473593,-60.0000008940697,27.));
#1201=CARTESIAN_POINT('',(156.736778236796,-60.0000008940697,26.));
#1202=CARTESIAN_POINT('Origin',(147.473554,-73.750416,26.));
#1203=CARTESIAN_POINT('',(176.973554,-73.750416,26.));
#1204=CARTESIAN_POINT('',(176.973554,-73.750416,26.));
#1205=CARTESIAN_POINT('Origin',(147.473554,-73.750416,26.));
#1206=CARTESIAN_POINT('Origin',(147.473554,-73.750416,26.));
#1207=CARTESIAN_POINT('Origin',(133.740853301612,-62.3688394322955,37.9120356450589));
#1208=CARTESIAN_POINT('',(135.740853301612,-62.3688394322955,58.2320356450595));
#1209=CARTESIAN_POINT('',(133.740853301612,-62.3688394322955,58.232035645059));
#1210=CARTESIAN_POINT('',(135.740853301612,-62.3688394322955,37.9120356450595));
#1211=CARTESIAN_POINT('Origin',(133.740853301612,-84.7803833018435,58.232035645059));
#1212=CARTESIAN_POINT('',(135.740853301612,-84.7803833018435,58.2320356450595));
#1213=CARTESIAN_POINT('',(135.740853301612,-84.7803833018435,58.2320356450595));
#1214=CARTESIAN_POINT('',(133.740853301612,-84.7803833018435,58.232035645059));
#1215=CARTESIAN_POINT('Origin',(135.740853301612,-73.5746113670695,48.0720356450595));
#1216=CARTESIAN_POINT('',(135.740853301612,-67.2246113670695,63.0878075798336));
#1217=CARTESIAN_POINT('Origin',(135.740853301612,-67.2246113670695,58.2320356450595));
#1218=CARTESIAN_POINT('',(135.740853301612,-79.9246113670695,63.0878075798336));
#1219=CARTESIAN_POINT('',(135.740853301612,-67.2246113670695,63.0878075798336));
#1220=CARTESIAN_POINT('Origin',(135.740853301612,-79.9246113670695,58.2320356450596));
#1221=CARTESIAN_POINT('',(135.740853301612,-65.9746113670695,58.232035645059));
#1222=CARTESIAN_POINT('Origin',(135.740853301612,-67.2246113670695,58.232035645059));
#1223=CARTESIAN_POINT('',(135.740853301612,-65.9746113670695,37.9120356450589));
#1224=CARTESIAN_POINT('Origin',(135.740853301612,-67.2246113670695,37.9120356450589));
#1225=CARTESIAN_POINT('Origin',(132.170853301612,-67.2246113670695,58.232035645059));
#1226=CARTESIAN_POINT('',(134.740853301612,-65.9746113670695,58.232035645059));
#1227=CARTESIAN_POINT('Origin',(134.740853301612,-67.2246113670695,58.232035645059));
#1228=CARTESIAN_POINT('',(132.170853301612,-65.9746113670695,58.232035645059));
#1229=CARTESIAN_POINT('Origin',(132.170853301612,-67.2246113670695,37.9120356450589));
#1230=CARTESIAN_POINT('',(134.740853301612,-65.9746113670695,37.9120356450589));
#1231=CARTESIAN_POINT('Origin',(134.740853301612,-67.2246113670695,37.9120356450589));
#1232=CARTESIAN_POINT('',(132.170853301612,-65.9746113670695,37.9120356450589));
#1233=CARTESIAN_POINT('Origin',(134.740853301612,-73.5746113670695,48.0720356450595));
#1234=CARTESIAN_POINT('',(134.740853301612,-64.6846113670695,37.9120356450589));
#1235=CARTESIAN_POINT('',(134.740853301612,-67.2246113670695,35.3720356450589));
#1236=CARTESIAN_POINT('Origin',(134.740853301612,-67.2246113670695,37.9120356450589));
#1237=CARTESIAN_POINT('',(134.740853301612,-79.9246113670695,35.3720356450589));
#1238=CARTESIAN_POINT('',(134.740853301612,-79.9246113670695,35.3720356450589));
#1239=CARTESIAN_POINT('',(134.740853301612,-82.4646113670695,37.9120356450589));
#1240=CARTESIAN_POINT('Origin',(134.740853301612,-79.9246113670695,37.9120356450589));
#1241=CARTESIAN_POINT('',(134.740853301612,-82.4646113670695,58.232035645059));
#1242=CARTESIAN_POINT('',(134.740853301612,-82.4646113670695,58.232035645059));
#1243=CARTESIAN_POINT('',(134.740853301612,-79.9246113670695,60.772035645059));
#1244=CARTESIAN_POINT('Origin',(134.740853301612,-79.9246113670695,58.232035645059));
#1245=CARTESIAN_POINT('',(134.740853301612,-67.2246113670695,60.772035645059));
#1246=CARTESIAN_POINT('',(134.740853301612,-67.2246113670695,60.772035645059));
#1247=CARTESIAN_POINT('',(134.740853301612,-64.6846113670695,58.232035645059));
#1248=CARTESIAN_POINT('Origin',(134.740853301612,-67.2246113670695,58.232035645059));
#1249=CARTESIAN_POINT('',(134.740853301612,-64.6846113670695,37.9120356450589));
#1250=CARTESIAN_POINT('Origin',(133.740853301612,-67.2246113670695,37.9120356450589));
#1251=CARTESIAN_POINT('',(133.740853301612,-67.2246113670695,35.3720356450589));
#1252=CARTESIAN_POINT('',(133.740853301612,-64.6846113670695,37.9120356450589));
#1253=CARTESIAN_POINT('Origin',(133.740853301612,-64.6846113670695,58.232035645059));
#1254=CARTESIAN_POINT('',(133.740853301612,-64.6846113670695,58.232035645059));
#1255=CARTESIAN_POINT('Origin',(133.740853301612,-67.2246113670695,58.232035645059));
#1256=CARTESIAN_POINT('',(133.740853301612,-67.2246113670695,60.772035645059));
#1257=CARTESIAN_POINT('Origin',(133.740853301612,-79.9246113670695,60.772035645059));
#1258=CARTESIAN_POINT('',(133.740853301612,-79.9246113670695,60.772035645059));
#1259=CARTESIAN_POINT('Origin',(133.740853301612,-79.9246113670695,58.232035645059));
#1260=CARTESIAN_POINT('',(133.740853301612,-82.4646113670695,58.232035645059));
#1261=CARTESIAN_POINT('Origin',(133.740853301612,-82.4646113670695,37.9120356450589));
#1262=CARTESIAN_POINT('',(133.740853301612,-82.4646113670695,37.9120356450589));
#1263=CARTESIAN_POINT('Origin',(133.740853301612,-79.9246113670695,37.9120356450589));
#1264=CARTESIAN_POINT('',(133.740853301612,-79.9246113670695,35.3720356450589));
#1265=CARTESIAN_POINT('Origin',(133.740853301612,-67.2246113670695,35.3720356450589));
#1266=CARTESIAN_POINT('Origin',(133.740853301612,-67.2246113670695,63.087807579833));
#1267=CARTESIAN_POINT('',(133.740853301612,-79.9246113670695,63.087807579833));
#1268=CARTESIAN_POINT('',(133.740853301612,-67.2246113670695,63.087807579833));
#1269=CARTESIAN_POINT('Origin',(133.740853301612,-67.2246113670695,58.232035645059));
#1270=CARTESIAN_POINT('Origin',(133.740853301612,-79.9246113670695,58.232035645059));
#1271=UNCERTAINTY_MEASURE_WITH_UNIT(LENGTH_MEASURE(0.01),#1275,
'DISTANCE_ACCURACY_VALUE',
'Maximum model space distance between geometric entities at asserted c
onnectivities');
#1272=UNCERTAINTY_MEASURE_WITH_UNIT(LENGTH_MEASURE(0.01),#1275,
'DISTANCE_ACCURACY_VALUE',
'Maximum model space distance between geometric entities at asserted c
onnectivities');
#1273=(
GEOMETRIC_REPRESENTATION_CONTEXT(3)
GLOBAL_UNCERTAINTY_ASSIGNED_CONTEXT((#1271))
GLOBAL_UNIT_ASSIGNED_CONTEXT((#1275,#1277,#1278))
REPRESENTATION_CONTEXT('','3D')
);
#1274=(
GEOMETRIC_REPRESENTATION_CONTEXT(3)
GLOBAL_UNCERTAINTY_ASSIGNED_CONTEXT((#1272))
GLOBAL_UNIT_ASSIGNED_CONTEXT((#1275,#1277,#1278))
REPRESENTATION_CONTEXT('','3D')
);
#1275=(
LENGTH_UNIT()
NAMED_UNIT(*)
SI_UNIT(.MILLI.,.METRE.)
);
#1276=(
LENGTH_UNIT()
NAMED_UNIT(*)
SI_UNIT($,.METRE.)
);
#1277=(
NAMED_UNIT(*)
PLANE_ANGLE_UNIT()
SI_UNIT($,.RADIAN.)
);
#1278=(
NAMED_UNIT(*)
SI_UNIT($,.STERADIAN.)
SOLID_ANGLE_UNIT()
);
#1279=SHAPE_DEFINITION_REPRESENTATION(#1280,#1281);
#1280=PRODUCT_DEFINITION_SHAPE('',$,#1283);
#1281=SHAPE_REPRESENTATION('',(#737),#1273);
#1282=PRODUCT_DEFINITION_CONTEXT('part definition',#1287,'design');
#1283=PRODUCT_DEFINITION('FusionComponent','FusionComponent',#1284,#1282);
#1284=PRODUCT_DEFINITION_FORMATION('',$,#1289);
#1285=PRODUCT_RELATED_PRODUCT_CATEGORY('FusionComponent',
'FusionComponent',(#1289));
#1286=APPLICATION_PROTOCOL_DEFINITION('international standard',
'automotive_design',2009,#1287);
#1287=APPLICATION_CONTEXT(
'Core Data for Automotive Mechanical Design Process');
#1288=PRODUCT_CONTEXT('part definition',#1287,'mechanical');
#1289=PRODUCT('FusionComponent','FusionComponent',$,(#1288));
#1290=PRESENTATION_STYLE_ASSIGNMENT((#1292));
#1291=PRESENTATION_STYLE_ASSIGNMENT((#1293));
#1292=SURFACE_STYLE_USAGE(.BOTH.,#1294);
#1293=SURFACE_STYLE_USAGE(.BOTH.,#1295);
#1294=SURFACE_SIDE_STYLE('',(#1296));
#1295=SURFACE_SIDE_STYLE('',(#1297));
#1296=SURFACE_STYLE_FILL_AREA(#1298);
#1297=SURFACE_STYLE_FILL_AREA(#1299);
#1298=FILL_AREA_STYLE('Steel - Satin',(#1300));
#1299=FILL_AREA_STYLE('ABS (White)',(#1301));
#1300=FILL_AREA_STYLE_COLOUR('Steel - Satin',#1302);
#1301=FILL_AREA_STYLE_COLOUR('ABS (White)',#1303);
#1302=COLOUR_RGB('Steel - Satin',0.627450980392157,0.627450980392157,0.627450980392157);
#1303=COLOUR_RGB('ABS (White)',0.964705882352941,0.964705882352941,0.952941176470588);
ENDSEC;
END-ISO-10303-21;
