ISO-10303-21;
HEADER;
/* Generated by software containing ST-Developer
 * from STEP Tools, Inc. (www.steptools.com) 
 */

FILE_DESCRIPTION(
/* description */ (''),
/* implementation_level */ '2;1');

FILE_NAME(
/* name */ 'Shell.step',
/* time_stamp */ '2026-07-31T17:54:04+01:00',
/* author */ (''),
/* organization */ (''),
/* preprocessor_version */ 'ST-DEVELOPER v20.1',
/* originating_system */ 'Autodesk Translation Framework v15.8.0.0',
/* authorisation */ '');

FILE_SCHEMA (('AUTOMOTIVE_DESIGN { 1 0 10303 214 3 1 1 }'));
ENDSEC;

DATA;
#10=MECHANICAL_DESIGN_GEOMETRIC_PRESENTATION_REPRESENTATION('',(#13),#287);
#11=SHAPE_REPRESENTATION_RELATIONSHIP('SRR','None',#294,#12);
#12=ADVANCED_BREP_SHAPE_REPRESENTATION('',(#14),#286);
#13=STYLED_ITEM('',(#304),#14);
#14=MANIFOLD_SOLID_BREP('Body1',#159);
#15=FACE_BOUND('',#42,.T.);
#16=FACE_BOUND('',#45,.T.);
#17=FACE_BOUND('',#46,.T.);
#18=FACE_BOUND('',#47,.T.);
#19=FACE_BOUND('',#48,.T.);
#20=FACE_BOUND('',#50,.T.);
#21=FACE_BOUND('',#51,.T.);
#22=FACE_BOUND('',#52,.T.);
#23=FACE_BOUND('',#53,.T.);
#24=PLANE('',#188);
#25=PLANE('',#192);
#26=PLANE('',#193);
#27=FACE_OUTER_BOUND('',#36,.T.);
#28=FACE_OUTER_BOUND('',#37,.T.);
#29=FACE_OUTER_BOUND('',#38,.T.);
#30=FACE_OUTER_BOUND('',#39,.T.);
#31=FACE_OUTER_BOUND('',#40,.T.);
#32=FACE_OUTER_BOUND('',#41,.T.);
#33=FACE_OUTER_BOUND('',#43,.T.);
#34=FACE_OUTER_BOUND('',#44,.T.);
#35=FACE_OUTER_BOUND('',#49,.T.);
#36=EDGE_LOOP('',(#108,#109,#110,#111));
#37=EDGE_LOOP('',(#112,#113,#114,#115));
#38=EDGE_LOOP('',(#116,#117,#118,#119));
#39=EDGE_LOOP('',(#120,#121,#122,#123));
#40=EDGE_LOOP('',(#124,#125,#126,#127));
#41=EDGE_LOOP('',(#128));
#42=EDGE_LOOP('',(#129));
#43=EDGE_LOOP('',(#130,#131,#132,#133));
#44=EDGE_LOOP('',(#134));
#45=EDGE_LOOP('',(#135));
#46=EDGE_LOOP('',(#136));
#47=EDGE_LOOP('',(#137));
#48=EDGE_LOOP('',(#138));
#49=EDGE_LOOP('',(#139));
#50=EDGE_LOOP('',(#140));
#51=EDGE_LOOP('',(#141));
#52=EDGE_LOOP('',(#142));
#53=EDGE_LOOP('',(#143));
#54=LINE('',#249,#60);
#55=LINE('',#255,#61);
#56=LINE('',#261,#62);
#57=LINE('',#267,#63);
#58=LINE('',#273,#64);
#59=LINE('',#281,#65);
#60=VECTOR('',#200,1.5);
#61=VECTOR('',#207,1.5);
#62=VECTOR('',#214,1.5);
#63=VECTOR('',#221,1.5);
#64=VECTOR('',#228,30.0927889544452);
#65=VECTOR('',#239,32.);
#66=CIRCLE('',#174,1.5);
#67=CIRCLE('',#175,1.5);
#68=CIRCLE('',#177,1.5);
#69=CIRCLE('',#178,1.5);
#70=CIRCLE('',#180,1.5);
#71=CIRCLE('',#181,1.5);
#72=CIRCLE('',#183,1.5);
#73=CIRCLE('',#184,1.5);
#74=CIRCLE('',#186,30.0927889544452);
#75=CIRCLE('',#187,30.0927889544452);
#76=CIRCLE('',#189,32.);
#77=CIRCLE('',#191,32.);
#78=VERTEX_POINT('',#246);
#79=VERTEX_POINT('',#248);
#80=VERTEX_POINT('',#252);
#81=VERTEX_POINT('',#254);
#82=VERTEX_POINT('',#258);
#83=VERTEX_POINT('',#260);
#84=VERTEX_POINT('',#264);
#85=VERTEX_POINT('',#266);
#86=VERTEX_POINT('',#270);
#87=VERTEX_POINT('',#272);
#88=VERTEX_POINT('',#276);
#89=VERTEX_POINT('',#279);
#90=EDGE_CURVE('',#78,#78,#66,.T.);
#91=EDGE_CURVE('',#78,#79,#54,.T.);
#92=EDGE_CURVE('',#79,#79,#67,.T.);
#93=EDGE_CURVE('',#80,#80,#68,.T.);
#94=EDGE_CURVE('',#80,#81,#55,.T.);
#95=EDGE_CURVE('',#81,#81,#69,.T.);
#96=EDGE_CURVE('',#82,#82,#70,.T.);
#97=EDGE_CURVE('',#82,#83,#56,.T.);
#98=EDGE_CURVE('',#83,#83,#71,.T.);
#99=EDGE_CURVE('',#84,#84,#72,.T.);
#100=EDGE_CURVE('',#84,#85,#57,.T.);
#101=EDGE_CURVE('',#85,#85,#73,.T.);
#102=EDGE_CURVE('',#86,#86,#74,.T.);
#103=EDGE_CURVE('',#86,#87,#58,.T.);
#104=EDGE_CURVE('',#87,#87,#75,.T.);
#105=EDGE_CURVE('',#88,#88,#76,.T.);
#106=EDGE_CURVE('',#89,#89,#77,.T.);
#107=EDGE_CURVE('',#89,#88,#59,.T.);
#108=ORIENTED_EDGE('',*,*,#90,.F.);
#109=ORIENTED_EDGE('',*,*,#91,.T.);
#110=ORIENTED_EDGE('',*,*,#92,.F.);
#111=ORIENTED_EDGE('',*,*,#91,.F.);
#112=ORIENTED_EDGE('',*,*,#93,.F.);
#113=ORIENTED_EDGE('',*,*,#94,.T.);
#114=ORIENTED_EDGE('',*,*,#95,.F.);
#115=ORIENTED_EDGE('',*,*,#94,.F.);
#116=ORIENTED_EDGE('',*,*,#96,.F.);
#117=ORIENTED_EDGE('',*,*,#97,.T.);
#118=ORIENTED_EDGE('',*,*,#98,.F.);
#119=ORIENTED_EDGE('',*,*,#97,.F.);
#120=ORIENTED_EDGE('',*,*,#99,.F.);
#121=ORIENTED_EDGE('',*,*,#100,.T.);
#122=ORIENTED_EDGE('',*,*,#101,.F.);
#123=ORIENTED_EDGE('',*,*,#100,.F.);
#124=ORIENTED_EDGE('',*,*,#102,.F.);
#125=ORIENTED_EDGE('',*,*,#103,.T.);
#126=ORIENTED_EDGE('',*,*,#104,.F.);
#127=ORIENTED_EDGE('',*,*,#103,.F.);
#128=ORIENTED_EDGE('',*,*,#105,.T.);
#129=ORIENTED_EDGE('',*,*,#102,.T.);
#130=ORIENTED_EDGE('',*,*,#106,.F.);
#131=ORIENTED_EDGE('',*,*,#107,.T.);
#132=ORIENTED_EDGE('',*,*,#105,.F.);
#133=ORIENTED_EDGE('',*,*,#107,.F.);
#134=ORIENTED_EDGE('',*,*,#106,.T.);
#135=ORIENTED_EDGE('',*,*,#90,.T.);
#136=ORIENTED_EDGE('',*,*,#93,.T.);
#137=ORIENTED_EDGE('',*,*,#96,.T.);
#138=ORIENTED_EDGE('',*,*,#99,.T.);
#139=ORIENTED_EDGE('',*,*,#104,.T.);
#140=ORIENTED_EDGE('',*,*,#92,.T.);
#141=ORIENTED_EDGE('',*,*,#95,.T.);
#142=ORIENTED_EDGE('',*,*,#98,.T.);
#143=ORIENTED_EDGE('',*,*,#101,.T.);
#144=CYLINDRICAL_SURFACE('',#173,1.5);
#145=CYLINDRICAL_SURFACE('',#176,1.5);
#146=CYLINDRICAL_SURFACE('',#179,1.5);
#147=CYLINDRICAL_SURFACE('',#182,1.5);
#148=CYLINDRICAL_SURFACE('',#185,30.0927889544452);
#149=CYLINDRICAL_SURFACE('',#190,32.);
#150=ADVANCED_FACE('',(#27),#144,.F.);
#151=ADVANCED_FACE('',(#28),#145,.F.);
#152=ADVANCED_FACE('',(#29),#146,.F.);
#153=ADVANCED_FACE('',(#30),#147,.F.);
#154=ADVANCED_FACE('',(#31),#148,.F.);
#155=ADVANCED_FACE('',(#32,#15),#24,.T.);
#156=ADVANCED_FACE('',(#33),#149,.T.);
#157=ADVANCED_FACE('',(#34,#16,#17,#18,#19),#25,.T.);
#158=ADVANCED_FACE('',(#35,#20,#21,#22,#23),#26,.F.);
#159=CLOSED_SHELL('',(#150,#151,#152,#153,#154,#155,#156,#157,#158));
#160=DERIVED_UNIT_ELEMENT(#162,1.);
#161=DERIVED_UNIT_ELEMENT(#289,-3.);
#162=(
MASS_UNIT()
NAMED_UNIT(*)
SI_UNIT(.KILO.,.GRAM.)
);
#163=DERIVED_UNIT((#160,#161));
#164=MEASURE_REPRESENTATION_ITEM('density measure',
POSITIVE_RATIO_MEASURE(7850.),#163);
#165=PROPERTY_DEFINITION_REPRESENTATION(#170,#167);
#166=PROPERTY_DEFINITION_REPRESENTATION(#171,#168);
#167=REPRESENTATION('material name',(#169),#286);
#168=REPRESENTATION('density',(#164),#286);
#169=DESCRIPTIVE_REPRESENTATION_ITEM('Steel','Steel');
#170=PROPERTY_DEFINITION('material property','material name',#296);
#171=PROPERTY_DEFINITION('material property','density of part',#296);
#172=AXIS2_PLACEMENT_3D('',#244,#194,#195);
#173=AXIS2_PLACEMENT_3D('',#245,#196,#197);
#174=AXIS2_PLACEMENT_3D('',#247,#198,#199);
#175=AXIS2_PLACEMENT_3D('',#250,#201,#202);
#176=AXIS2_PLACEMENT_3D('',#251,#203,#204);
#177=AXIS2_PLACEMENT_3D('',#253,#205,#206);
#178=AXIS2_PLACEMENT_3D('',#256,#208,#209);
#179=AXIS2_PLACEMENT_3D('',#257,#210,#211);
#180=AXIS2_PLACEMENT_3D('',#259,#212,#213);
#181=AXIS2_PLACEMENT_3D('',#262,#215,#216);
#182=AXIS2_PLACEMENT_3D('',#263,#217,#218);
#183=AXIS2_PLACEMENT_3D('',#265,#219,#220);
#184=AXIS2_PLACEMENT_3D('',#268,#222,#223);
#185=AXIS2_PLACEMENT_3D('',#269,#224,#225);
#186=AXIS2_PLACEMENT_3D('',#271,#226,#227);
#187=AXIS2_PLACEMENT_3D('',#274,#229,#230);
#188=AXIS2_PLACEMENT_3D('',#275,#231,#232);
#189=AXIS2_PLACEMENT_3D('',#277,#233,#234);
#190=AXIS2_PLACEMENT_3D('',#278,#235,#236);
#191=AXIS2_PLACEMENT_3D('',#280,#237,#238);
#192=AXIS2_PLACEMENT_3D('',#282,#240,#241);
#193=AXIS2_PLACEMENT_3D('',#283,#242,#243);
#194=DIRECTION('axis',(0.,0.,1.));
#195=DIRECTION('refdir',(1.,0.,0.));
#196=DIRECTION('center_axis',(0.,0.,1.));
#197=DIRECTION('ref_axis',(-1.,1.22464679914735E-16,0.));
#198=DIRECTION('center_axis',(0.,0.,1.));
#199=DIRECTION('ref_axis',(-1.,1.22464679914735E-16,0.));
#200=DIRECTION('',(0.,0.,1.));
#201=DIRECTION('center_axis',(0.,0.,-1.));
#202=DIRECTION('ref_axis',(-1.,1.22464679914735E-16,0.));
#203=DIRECTION('center_axis',(0.,0.,1.));
#204=DIRECTION('ref_axis',(-1.83697019872103E-16,-1.,0.));
#205=DIRECTION('center_axis',(0.,0.,1.));
#206=DIRECTION('ref_axis',(-1.83697019872103E-16,-1.,0.));
#207=DIRECTION('',(0.,0.,1.));
#208=DIRECTION('center_axis',(0.,0.,-1.));
#209=DIRECTION('ref_axis',(-1.83697019872103E-16,-1.,0.));
#210=DIRECTION('center_axis',(0.,0.,1.));
#211=DIRECTION('ref_axis',(1.,0.,0.));
#212=DIRECTION('center_axis',(0.,0.,1.));
#213=DIRECTION('ref_axis',(1.,0.,0.));
#214=DIRECTION('',(0.,0.,1.));
#215=DIRECTION('center_axis',(0.,0.,-1.));
#216=DIRECTION('ref_axis',(1.,0.,0.));
#217=DIRECTION('center_axis',(0.,0.,1.));
#218=DIRECTION('ref_axis',(6.12323399573677E-17,1.,0.));
#219=DIRECTION('center_axis',(0.,0.,1.));
#220=DIRECTION('ref_axis',(6.12323399573677E-17,1.,0.));
#221=DIRECTION('',(0.,0.,1.));
#222=DIRECTION('center_axis',(0.,0.,-1.));
#223=DIRECTION('ref_axis',(6.12323399573677E-17,1.,0.));
#224=DIRECTION('center_axis',(0.,0.,1.));
#225=DIRECTION('ref_axis',(-1.,0.,0.));
#226=DIRECTION('center_axis',(0.,0.,-1.));
#227=DIRECTION('ref_axis',(-1.,0.,0.));
#228=DIRECTION('',(0.,0.,-1.));
#229=DIRECTION('center_axis',(0.,0.,1.));
#230=DIRECTION('ref_axis',(-1.,0.,0.));
#231=DIRECTION('center_axis',(0.,0.,1.));
#232=DIRECTION('ref_axis',(-1.,0.,0.));
#233=DIRECTION('center_axis',(0.,0.,1.));
#234=DIRECTION('ref_axis',(-1.,0.,0.));
#235=DIRECTION('center_axis',(0.,0.,-1.));
#236=DIRECTION('ref_axis',(1.,0.,0.));
#237=DIRECTION('center_axis',(0.,0.,-1.));
#238=DIRECTION('ref_axis',(1.,0.,0.));
#239=DIRECTION('',(0.,0.,1.));
#240=DIRECTION('center_axis',(0.,0.,-1.));
#241=DIRECTION('ref_axis',(1.,0.,0.));
#242=DIRECTION('center_axis',(0.,0.,-1.));
#243=DIRECTION('ref_axis',(1.,0.,0.));
#244=CARTESIAN_POINT('',(0.,0.,0.));
#245=CARTESIAN_POINT('Origin',(163.029903,-89.306765,18.));
#246=CARTESIAN_POINT('',(164.529903,-89.306765,-7.));
#247=CARTESIAN_POINT('Origin',(163.029903,-89.306765,-7.));
#248=CARTESIAN_POINT('',(164.529903,-89.306765,-2.));
#249=CARTESIAN_POINT('',(164.529903,-89.306765,18.));
#250=CARTESIAN_POINT('Origin',(163.029903,-89.306765,-2.));
#251=CARTESIAN_POINT('Origin',(163.029903,-58.1940670000002,18.));
#252=CARTESIAN_POINT('',(163.029903,-56.6940670000001,-7.));
#253=CARTESIAN_POINT('Origin',(163.029903,-58.1940670000002,-7.));
#254=CARTESIAN_POINT('',(163.029903,-56.6940670000001,-2.));
#255=CARTESIAN_POINT('',(163.029903,-56.6940670000001,18.));
#256=CARTESIAN_POINT('Origin',(163.029903,-58.1940670000002,-2.));
#257=CARTESIAN_POINT('Origin',(131.917205,-58.1940670000001,18.));
#258=CARTESIAN_POINT('',(130.417205,-58.1940670000001,-7.));
#259=CARTESIAN_POINT('Origin',(131.917205,-58.1940670000001,-7.));
#260=CARTESIAN_POINT('',(130.417205,-58.1940670000001,-2.));
#261=CARTESIAN_POINT('',(130.417205,-58.1940670000001,18.));
#262=CARTESIAN_POINT('Origin',(131.917205,-58.1940670000001,-2.));
#263=CARTESIAN_POINT('Origin',(131.917205,-89.306765,18.));
#264=CARTESIAN_POINT('',(131.917205,-90.806765,-7.));
#265=CARTESIAN_POINT('Origin',(131.917205,-89.306765,-7.));
#266=CARTESIAN_POINT('',(131.917205,-90.806765,-2.));
#267=CARTESIAN_POINT('',(131.917205,-90.806765,18.));
#268=CARTESIAN_POINT('Origin',(131.917205,-89.306765,-2.));
#269=CARTESIAN_POINT('Origin',(147.473554,-73.750416,-2.));
#270=CARTESIAN_POINT('',(177.566342954445,-73.750416,98.));
#271=CARTESIAN_POINT('Origin',(147.473554,-73.750416,98.));
#272=CARTESIAN_POINT('',(177.566342954445,-73.750416,-2.));
#273=CARTESIAN_POINT('',(177.566342954445,-73.750416,-2.));
#274=CARTESIAN_POINT('Origin',(147.473554,-73.750416,-2.));
#275=CARTESIAN_POINT('Origin',(147.473554,-73.750416,98.));
#276=CARTESIAN_POINT('',(115.473554,-73.750416,98.));
#277=CARTESIAN_POINT('Origin',(147.473554,-73.750416,98.));
#278=CARTESIAN_POINT('Origin',(147.473554,-73.750416,-2.));
#279=CARTESIAN_POINT('',(115.473554,-73.750416,-7.));
#280=CARTESIAN_POINT('Origin',(147.473554,-73.750416,-7.));
#281=CARTESIAN_POINT('',(115.473554,-73.750416,-2.));
#282=CARTESIAN_POINT('Origin',(147.473554,-73.750416,-7.));
#283=CARTESIAN_POINT('Origin',(147.473554,-73.750416,-2.));
#284=UNCERTAINTY_MEASURE_WITH_UNIT(LENGTH_MEASURE(0.01),#288,
'DISTANCE_ACCURACY_VALUE',
'Maximum model space distance between geometric entities at asserted c
onnectivities');
#285=UNCERTAINTY_MEASURE_WITH_UNIT(LENGTH_MEASURE(0.01),#288,
'DISTANCE_ACCURACY_VALUE',
'Maximum model space distance between geometric entities at asserted c
onnectivities');
#286=(
GEOMETRIC_REPRESENTATION_CONTEXT(3)
GLOBAL_UNCERTAINTY_ASSIGNED_CONTEXT((#284))
GLOBAL_UNIT_ASSIGNED_CONTEXT((#288,#290,#291))
REPRESENTATION_CONTEXT('','3D')
);
#287=(
GEOMETRIC_REPRESENTATION_CONTEXT(3)
GLOBAL_UNCERTAINTY_ASSIGNED_CONTEXT((#285))
GLOBAL_UNIT_ASSIGNED_CONTEXT((#288,#290,#291))
REPRESENTATION_CONTEXT('','3D')
);
#288=(
LENGTH_UNIT()
NAMED_UNIT(*)
SI_UNIT(.MILLI.,.METRE.)
);
#289=(
LENGTH_UNIT()
NAMED_UNIT(*)
SI_UNIT($,.METRE.)
);
#290=(
NAMED_UNIT(*)
PLANE_ANGLE_UNIT()
SI_UNIT($,.RADIAN.)
);
#291=(
NAMED_UNIT(*)
SI_UNIT($,.STERADIAN.)
SOLID_ANGLE_UNIT()
);
#292=SHAPE_DEFINITION_REPRESENTATION(#293,#294);
#293=PRODUCT_DEFINITION_SHAPE('',$,#296);
#294=SHAPE_REPRESENTATION('',(#172),#286);
#295=PRODUCT_DEFINITION_CONTEXT('part definition',#300,'design');
#296=PRODUCT_DEFINITION('FusionComponent','FusionComponent',#297,#295);
#297=PRODUCT_DEFINITION_FORMATION('',$,#302);
#298=PRODUCT_RELATED_PRODUCT_CATEGORY('FusionComponent',
'FusionComponent',(#302));
#299=APPLICATION_PROTOCOL_DEFINITION('international standard',
'automotive_design',2009,#300);
#300=APPLICATION_CONTEXT(
'Core Data for Automotive Mechanical Design Process');
#301=PRODUCT_CONTEXT('part definition',#300,'mechanical');
#302=PRODUCT('FusionComponent','FusionComponent',$,(#301));
#303=PRESENTATION_STYLE_ASSIGNMENT((#305));
#304=PRESENTATION_STYLE_ASSIGNMENT((#306));
#305=SURFACE_STYLE_USAGE(.BOTH.,#307);
#306=SURFACE_STYLE_USAGE(.BOTH.,#308);
#307=SURFACE_SIDE_STYLE('',(#309));
#308=SURFACE_SIDE_STYLE('',(#310));
#309=SURFACE_STYLE_FILL_AREA(#311);
#310=SURFACE_STYLE_FILL_AREA(#312);
#311=FILL_AREA_STYLE('Steel - Satin',(#313));
#312=FILL_AREA_STYLE('ABS (White)',(#314));
#313=FILL_AREA_STYLE_COLOUR('Steel - Satin',#315);
#314=FILL_AREA_STYLE_COLOUR('ABS (White)',#316);
#315=COLOUR_RGB('Steel - Satin',0.627450980392157,0.627450980392157,0.627450980392157);
#316=COLOUR_RGB('ABS (White)',0.964705882352941,0.964705882352941,0.952941176470588);
ENDSEC;
END-ISO-10303-21;
